<?xml version="1.0" encoding="UTF-8" standalone="no"?>
<!-- Created with Inkscape (http://www.inkscape.org/) -->

<svg
   xmlns:dc="http://purl.org/dc/elements/1.1/"
   xmlns:cc="http://creativecommons.org/ns#"
   xmlns:rdf="http://www.w3.org/1999/02/22-rdf-syntax-ns#"
   xmlns:svg="http://www.w3.org/2000/svg"
   xmlns="http://www.w3.org/2000/svg"
   xmlns:sodipodi="http://sodipodi.sourceforge.net/DTD/sodipodi-0.dtd"
   xmlns:inkscape="http://www.inkscape.org/namespaces/inkscape"
   width="3.585783in"
   height="1.8314196in"
   viewBox="0 0 91.078887 46.518058"
   version="1.1"
   id="svg8"
   inkscape:version="0.92.4 (5da689c313, 2019-01-14)"
   sodipodi:docname="if_last_skip_section_true.svg"
   inkscape:export-filename="C:\Users\hdmfla\Documents\GitHub\2019_smoltrack\flavio\vignettes\parallel_channels_bad.png"
   inkscape:export-xdpi="99.980003"
   inkscape:export-ydpi="99.980003">
  <defs
     id="defs2">
    <clipPath
       clipPathUnits="userSpaceOnUse"
       id="clipPath3169">
      <rect
         style="opacity:1;vector-effect:none;fill:#ffffff;fill-opacity:1;stroke:none;stroke-width:3.12500572;stroke-linecap:butt;stroke-linejoin:miter;stroke-miterlimit:4;stroke-dasharray:none;stroke-dashoffset:0;stroke-opacity:1;marker:none"
         id="rect3171"
         width="2244.0986"
         height="2244.0986"
         x="188.52281"
         y="13.283381" />
    </clipPath>
    <filter
       inkscape:collect="always"
       style="color-interpolation-filters:sRGB"
       id="filter921"
       x="-0.036349691"
       width="1.0726994"
       y="-0.03565697"
       height="1.0713139">
      <feGaussianBlur
         inkscape:collect="always"
         stdDeviation="2.7993861"
         id="feGaussianBlur923" />
    </filter>
  </defs>
  <sodipodi:namedview
     id="base"
     pagecolor="#ffffff"
     bordercolor="#666666"
     borderopacity="1.0"
     inkscape:pageopacity="0.0"
     inkscape:pageshadow="2"
     inkscape:zoom="1.8559571"
     inkscape:cx="111.64268"
     inkscape:cy="92.548562"
     inkscape:document-units="mm"
     inkscape:current-layer="layer1"
     showgrid="false"
     units="in"
     inkscape:window-width="1920"
     inkscape:window-height="1121"
     inkscape:window-x="1911"
     inkscape:window-y="-9"
     inkscape:window-maximized="1"
     fit-margin-top="0"
     fit-margin-left="0"
     fit-margin-right="0"
     fit-margin-bottom="0" />
  <metadata
     id="metadata5">
    <rdf:RDF>
      <cc:Work
         rdf:about="">
        <dc:format>image/svg+xml</dc:format>
        <dc:type
           rdf:resource="http://purl.org/dc/dcmitype/StillImage" />
        <dc:title></dc:title>
      </cc:Work>
    </rdf:RDF>
  </metadata>
  <g
     inkscape:label="Layer 1"
     inkscape:groupmode="layer"
     id="layer1"
     transform="translate(-6.9682107,-223.73889)">
    <path
       style="display:inline;opacity:1;vector-effect:none;fill:#e6f1ba;fill-opacity:1;stroke:none;stroke-width:1;stroke-linecap:butt;stroke-linejoin:miter;stroke-miterlimit:4;stroke-dasharray:none;stroke-dashoffset:0;stroke-opacity:1;filter:url(#filter921)"
       d="m 72.133281,125.61004 c 14.569607,-4.50591 34.173569,-5.84738 49.966609,-3.27478 11.39796,1.85666 26.85974,5.41791 33.90062,-1.03228 12.64529,-11.58441 -0.34523,-30.61375 -4.18846,-45.501676 -1.65258,-6.401757 -40.57612,20.570836 -67.912723,19.3593 -13.951541,2.524134 -34.299114,11.254186 -34.500724,19.051156 -0.203927,7.88655 18.09993,8.79578 22.734678,11.39828 z"
       id="path1452"
       inkscape:connector-curvature="0"
       sodipodi:nodetypes="cssscsc"
       transform="matrix(-0.73515953,0,0,0.73104941,130.51817,172.80204)" />
    <path
       sodipodi:nodetypes="cccccccccccccccccccccccccsssssssssssssccsccssssssscccccccccccccccccccccccccccccccccccccccccccccc"
       inkscape:connector-curvature="0"
       id="path920"
       d="m 15.476364,265.85364 c -0.766238,-1.70198 -0.386768,-3.53876 0.563049,-5.07757 1.336634,-0.48149 2.721063,-1.74578 3.973915,-2.51744 0.70502,-0.10724 1.088728,-0.79218 1.856797,-0.78754 0.49125,-0.0523 0.959362,-0.40963 1.429869,-0.58121 0.528985,-0.26617 1.007036,-0.48437 1.544492,-0.73316 0.440201,0.0582 1.092415,-0.47473 1.189909,-0.18581 0.506914,-0.59298 1.320956,-0.1471 1.954797,-0.19946 0.80024,0.19252 -0.400159,1.12327 0.384832,0.98271 0.210268,-0.80862 0.892094,-0.80519 1.091643,-0.0312 0.277291,0.75324 0.59647,0.62361 1.217312,0.55508 0.580606,0.0773 0.827787,0.66046 1.506314,0.2713 0.455322,0.26451 1.224353,0.85225 1.252579,-0.11098 0.364213,-0.47356 1.30187,-0.12942 1.26048,-0.92876 0.410379,-0.67552 1.149796,-0.0894 1.721653,-0.3906 0.514559,-0.12562 1.456794,0.42764 1.502986,-0.37618 0.274493,-0.49002 0.503028,-0.80982 0.953608,-1.15588 0.339671,-0.47091 0.734385,-0.90823 0.914043,-1.42053 -0.664101,-0.29941 -0.578761,-1.19854 0.144751,-1.33382 0.693734,0.11136 1.078049,-0.71307 1.791372,-0.57278 1.094746,0.36496 1.678009,1.53761 2.595278,2.20106 1.403837,1.21323 2.774127,2.48087 4.058763,3.81119 0.350203,0.43342 0.788793,0.78074 1.149613,1.23394 0.588454,0.48195 1.126979,1.21365 1.879352,1.36338 0.889601,-0.44367 1.99877,-0.15227 2.759874,-0.64586 0,0 2.819047,-0.3213 4.188093,-0.67525 0.745841,-0.19283 1.465676,-0.48124 2.174024,-0.78407 1.360522,-0.58163 2.587594,-1.46065 3.973832,-1.97801 0.890837,-0.33247 1.883356,-0.34951 2.76208,-0.71279 1.15893,-0.47912 2.071515,-1.45975 3.243216,-1.90673 0.820664,-0.31307 1.705532,-0.51607 2.583882,-0.51677 0.732736,-5.8e-4 1.620597,-0.0724 2.156204,0.42767 0.647762,0.60473 0.594012,1.68566 0.694975,2.56606 0.112414,0.98025 -0.565705,2.08457 -0.106919,2.9581 0.596099,1.13497 1.965289,1.96517 3.243216,2.06711 1.625731,0.12968 3.022132,-1.23287 4.490608,-1.94237 1.438093,-0.69483 2.675025,-1.87106 4.223309,-2.26312 1.405016,-0.35578 2.989742,-0.52342 4.348049,-0.0178 1.033739,0.3848 2.494782,2.174 2.494782,2.174 l 0.194576,-3.15808 c 0,0 -1.617427,-1.86577 -2.73432,-2.2429 -1.560937,-0.52707 -3.338391,-0.21224 -4.939416,0.17641 -2.181683,0.58639 -5.546046,6.00052 -8.780487,4.69235 -0.488111,-0.96543 0.308748,-3.23852 0.142931,-4.30754 -0.125171,-0.80698 -1.424041,-2.66559 -2.035112,-3.20733 -0.788982,-0.69944 -2.007567,-0.78684 -3.061934,-0.79384 -1.19797,-0.008 -2.368302,0.43708 -3.490352,0.85684 -1.367071,0.51142 -2.545972,1.44277 -3.893571,2.00349 -1.169928,0.48679 -2.445156,0.68813 -3.616358,1.17185 -1.371574,0.56647 -2.573812,1.51104 -3.969174,2.01609 -1.493604,0.54065 -4.503063,0.0277 -4.503063,0.0277 -0.449671,-0.34127 -1.140479,-0.57501 -1.155349,-1.37922 -0.564152,0.38523 -1.2498,0.30352 -1.33024,-0.4559 -0.149068,-0.57953 -1.025872,-0.98546 -0.63725,-1.63551 0.11355,-0.73688 1.323703,-0.4294 1.365243,-0.66718 -0.382547,-0.64011 -1.555534,-0.926 -1.244961,-1.82416 0.11789,-0.93987 -0.752596,-0.37336 -1.033546,-0.91027 -0.760093,-0.41619 0.488742,-1.01498 -0.382343,-1.2583 -0.283727,-0.4336 -0.174669,-1.27568 -0.930287,-1.38287 -0.630154,-0.25786 -1.130583,-0.77929 -1.645641,-1.14576 -0.164271,-0.67546 -0.739116,-0.64518 -1.216073,-0.84603 -0.503516,0.0513 -0.654992,-0.10188 -1.235319,0.12474 -0.494581,-0.0566 -0.708083,-0.62452 -0.965011,-1.09582 -0.440688,0.15978 -1.059367,0.0467 -1.135287,0.74013 -0.337588,0.2122 -0.925683,-0.15005 -1.167742,0.35325 -0.721108,0.32259 -0.848847,-0.42392 -0.912947,-0.83795 -0.440551,-0.37401 -0.942205,-0.12757 -0.884455,0.33986 -0.268213,0.46338 0.273973,0.90669 -0.660869,1.06013 -0.491985,-0.23909 -0.845236,-0.58929 -1.435734,-0.71837 -0.473364,-0.33526 -0.205905,-1.04163 -0.776078,-1.10803 -0.755773,-0.16226 -0.270471,0.98741 -1.091688,0.90111 -0.413415,0.56015 -0.51083,1.50926 -1.240383,1.65607 -0.208309,0.50765 -0.831865,0.78144 -0.983116,1.33213 -0.372463,0.46622 -0.84802,0.8868 -1.324923,1.19167 -0.337583,0.32058 -0.968665,0.14168 -1.38981,0.24138 -0.394804,-0.18729 -1.044443,-0.16278 -1.33854,-0.69152 -0.56012,-0.5239 -0.757061,-1.69878 0.06553,-2.04921 0.742467,0.41111 0.878585,-0.41507 0.676507,-0.97027 0.322182,-0.62479 0.13193,-1.32953 -0.118568,-1.97127 0.3124,-0.45634 0.113419,-0.95523 -0.01434,-1.4885 -0.188004,-0.38444 -0.658672,-1.23773 -1.107727,-0.58255 -0.382658,0.48808 -1.099657,0.10252 -1.366638,0.75177 -0.275151,0.45711 -0.921711,0.60644 -1.354254,0.93257 -0.592846,0.46911 -1.499076,0.23417 -2.11551,0.61185 -0.545341,0.51917 -1.147863,-0.36397 -1.236263,-0.88499 -0.289635,-0.78813 -0.620425,-0.61187 -1.025145,0.0297 -0.699701,0.53755 -1.640349,0.62715 -2.481244,0.62115 -1.108446,-0.18262 -2.208684,-0.84142 -2.730886,-1.85246 -0.473581,-0.65551 0.05067,-1.16373 -0.194168,-1.51367 -0.221406,-0.6188 0.481184,-1.08069 0.412293,-1.65372 0.120428,-0.5237 0.288199,-1.31603 0.746376,-1.10708 -0.07917,-0.63716 0.307514,-1.19786 0.07542,-1.81438 -0.724822,-1.21843 1.147352,-1.17073 0.120274,-2.48971 -0.786543,-1.50524 1.311971,-2.92663 -0.544308,-4.0967 -0.367887,-0.44257 -0.994608,-0.94517 -0.806172,-1.59644 -4.606722,-2.56499 -11.6545575,29.44268 -0.72918,39.13938 z"
       clip-path="none"
       mask="none"
       style="font-style:normal;font-weight:400;font-size:medium;font-family:'MS Shell Dlg 2';opacity:1;vector-effect:none;fill:#a4efef;fill-opacity:1;fill-rule:evenodd;stroke:none;stroke-width:0.99999994;stroke-linecap:butt;stroke-linejoin:miter;stroke-miterlimit:4;stroke-dasharray:none;stroke-dashoffset:0;stroke-opacity:1" />
    <path
       style="font-style:normal;font-weight:400;font-size:medium;font-family:'MS Shell Dlg 2';opacity:1;vector-effect:none;fill:none;fill-opacity:1;fill-rule:evenodd;stroke:#323232;stroke-width:0.40000001;stroke-linecap:butt;stroke-linejoin:miter;stroke-miterlimit:4;stroke-dasharray:none;stroke-dashoffset:0;stroke-opacity:1"
       mask="none"
       clip-path="none"
       d="m 15.476364,265.85364 c -0.766238,-1.70198 -0.386768,-3.53876 0.563049,-5.07757 1.336634,-0.48149 2.721063,-1.74578 3.973915,-2.51744 0.70502,-0.10724 1.088728,-0.79218 1.856797,-0.78754 0.49125,-0.0523 0.959362,-0.40963 1.429869,-0.58121 0.528985,-0.26617 1.007036,-0.48437 1.544492,-0.73316 0.440201,0.0582 1.092415,-0.47473 1.189909,-0.18581 0.506914,-0.59298 1.320956,-0.1471 1.954797,-0.19946 0.80024,0.19252 -0.400159,1.12327 0.384832,0.98271 0.210268,-0.80862 0.892094,-0.80519 1.091643,-0.0312 0.277291,0.75324 0.59647,0.62361 1.217312,0.55508 0.580606,0.0773 0.827787,0.66046 1.506314,0.2713 0.455322,0.26451 1.224353,0.85225 1.252579,-0.11098 0.364213,-0.47356 1.30187,-0.12942 1.26048,-0.92876 0.410379,-0.67552 1.149796,-0.0894 1.721653,-0.3906 0.514559,-0.12562 1.456794,0.42764 1.502986,-0.37618 0.274493,-0.49002 0.503028,-0.80982 0.953608,-1.15588 0.339671,-0.47091 0.734385,-0.90823 0.914043,-1.42053 -0.664101,-0.29941 -0.578761,-1.19854 0.144751,-1.33382 0.693734,0.11136 1.078049,-0.71307 1.791372,-0.57278 1.094746,0.36496 1.678009,1.53761 2.595278,2.20106 1.403837,1.21323 2.774127,2.48087 4.058763,3.81119 0.350203,0.43342 0.788793,0.78074 1.149613,1.23394 0.588454,0.48195 1.126979,1.21365 1.879352,1.36338 0.889601,-0.44367 1.99877,-0.15227 2.759874,-0.64586 0,0 2.819047,-0.3213 4.188093,-0.67525 0.745841,-0.19283 1.465676,-0.48124 2.174024,-0.78407 1.360522,-0.58163 2.587594,-1.46065 3.973832,-1.97801 0.890837,-0.33247 1.883356,-0.34951 2.76208,-0.71279 1.15893,-0.47912 2.071515,-1.45975 3.243216,-1.90673 0.820664,-0.31307 1.705532,-0.51607 2.583882,-0.51677 0.732736,-5.8e-4 1.620597,-0.0724 2.156204,0.42767 0.647762,0.60473 0.594012,1.68566 0.694975,2.56606 0.112414,0.98025 -0.565705,2.08457 -0.106919,2.9581 0.596099,1.13497 1.965289,1.96517 3.243216,2.06711 1.625731,0.12968 3.022132,-1.23287 4.490608,-1.94237 1.438093,-0.69483 2.675025,-1.87106 4.223309,-2.26312 1.405016,-0.35578 2.989742,-0.52342 4.348049,-0.0178 1.033739,0.3848 2.494782,2.174 2.494782,2.174 M 16.205544,226.71426 c -0.188436,0.65127 0.438285,1.15387 0.806172,1.59644 1.856279,1.17007 -0.242235,2.59146 0.544308,4.0967 1.027078,1.31898 -0.845096,1.27128 -0.120274,2.48971 0.232094,0.61652 -0.15459,1.17722 -0.07542,1.81438 -0.458177,-0.20895 -0.625948,0.58338 -0.746376,1.10708 0.06889,0.57303 -0.633699,1.03492 -0.412293,1.65372 0.244835,0.34994 -0.279413,0.85816 0.194168,1.51367 0.522202,1.01104 1.62244,1.66984 2.730886,1.85246 0.840895,0.006 1.781543,-0.0836 2.481244,-0.62115 0.40472,-0.64157 0.73551,-0.81783 1.025145,-0.0297 0.0884,0.52102 0.690922,1.40416 1.236263,0.88499 0.616434,-0.37768 1.522664,-0.14274 2.11551,-0.61185 0.432543,-0.32613 1.079103,-0.47546 1.354254,-0.93257 0.266981,-0.64925 0.98398,-0.26369 1.366638,-0.75177 0.449055,-0.65518 0.919723,0.19811 1.107727,0.58255 0.127759,0.53327 0.32674,1.03216 0.01434,1.4885 0.250498,0.64174 0.44075,1.34648 0.118568,1.97127 0.202078,0.5552 0.06596,1.38138 -0.676507,0.97027 -0.822591,0.35043 -0.62565,1.52531 -0.06553,2.04921 0.294097,0.52874 0.943736,0.50423 1.33854,0.69152 0.421145,-0.0997 1.052227,0.0792 1.38981,-0.24138 0.476903,-0.30487 0.95246,-0.72545 1.324923,-1.19167 0.151251,-0.55069 0.774807,-0.82448 0.983116,-1.33213 0.729553,-0.14681 0.826968,-1.09592 1.240383,-1.65607 0.821217,0.0863 0.335915,-1.06337 1.091688,-0.90111 0.570173,0.0664 0.302714,0.77277 0.776078,1.10803 0.590498,0.12908 0.943749,0.47928 1.435734,0.71837 0.934842,-0.15344 0.392656,-0.59675 0.660869,-1.06013 -0.05775,-0.46743 0.443904,-0.71387 0.884455,-0.33986 0.0641,0.41403 0.191839,1.16054 0.912947,0.83795 0.242059,-0.5033 0.830154,-0.14105 1.167742,-0.35325 0.07592,-0.69343 0.694599,-0.58035 1.135287,-0.74013 0.256928,0.4713 0.47043,1.03922 0.965011,1.09582 0.580327,-0.22662 0.731803,-0.0734 1.235319,-0.12474 0.476957,0.20085 1.051802,0.17057 1.216073,0.84603 0.515058,0.36647 1.015487,0.8879 1.645641,1.14576 0.755618,0.10719 0.64656,0.94927 0.930287,1.38287 0.871085,0.24332 -0.37775,0.84211 0.382343,1.2583 0.28095,0.53691 1.151436,-0.0296 1.033546,0.91027 -0.310573,0.89816 0.862414,1.18405 1.244961,1.82416 -0.04154,0.23778 -1.251693,-0.0697 -1.365243,0.66718 -0.388622,0.65005 0.488182,1.05598 0.63725,1.63551 0.08044,0.75942 0.766088,0.84113 1.33024,0.4559 0.01487,0.80421 0.705678,1.03795 1.155349,1.37922 0,0 3.009459,0.51295 4.503063,-0.0277 1.395362,-0.50505 2.5976,-1.44962 3.969174,-2.01609 1.171202,-0.48372 2.44643,-0.68506 3.616358,-1.17185 1.347599,-0.56072 2.5265,-1.49207 3.893571,-2.00349 1.12205,-0.41976 2.292382,-0.8646 3.490352,-0.85684 1.054367,0.007 2.272952,0.0944 3.061934,0.79384 0.611071,0.54174 1.909941,2.40035 2.035112,3.20733 0.165817,1.06902 -0.631042,3.34211 -0.142931,4.30754 3.234441,1.30817 6.598804,-4.10596 8.780487,-4.69235 1.601025,-0.38865 3.378479,-0.70348 4.939416,-0.17641 1.116893,0.37713 2.73432,2.2429 2.73432,2.2429"
       id="path94"
       inkscape:connector-curvature="0"
       sodipodi:nodetypes="cccccccccccccccccccccccccsssssssssssssccccccccccccccccccccccccccccccccccccccccccccccsssssssccsc" />
    <path
       style="opacity:1;vector-effect:none;fill:#ffffff;fill-opacity:1;fill-rule:evenodd;stroke:#000000;stroke-width:0.421;stroke-linecap:round;stroke-linejoin:miter;stroke-miterlimit:4;stroke-dasharray:none;stroke-dashoffset:0;stroke-opacity:1"
       d="m 21.43527,259.0968 h 11.272952 c 1.031864,0 1.862571,0.83071 1.862571,1.86257 v 2.45687 c 0,1.03186 -0.830707,1.86257 -1.862571,1.86257 H 21.43527 c -1.031864,0 -1.862571,-0.83071 -1.862571,-1.86257 v -2.45687 c 0,-1.03186 0.830707,-1.86257 1.862571,-1.86257 z"
       id="rect895" />
    <path
       style="opacity:1;vector-effect:none;fill:#ffffff;fill-opacity:1;fill-rule:evenodd;stroke:#000000;stroke-width:0.421;stroke-linecap:round;stroke-linejoin:miter;stroke-miterlimit:4;stroke-dasharray:none;stroke-dashoffset:0;stroke-opacity:1"
       d="m 40.059055,235.68527 h 11.272952 c 1.031864,0 1.862571,0.83071 1.862571,1.86257 v 2.45687 c 0,1.03187 -0.830707,1.86257 -1.862571,1.86257 H 40.059055 c -1.031864,0 -1.862571,-0.8307 -1.862571,-1.86257 v -2.45687 c 0,-1.03186 0.830707,-1.86257 1.862571,-1.86257 z"
       id="rect857" />
    <path
       style="opacity:1;vector-effect:none;fill:#ffffff;fill-opacity:1;fill-rule:evenodd;stroke:#000000;stroke-width:0.421;stroke-linecap:round;stroke-linejoin:miter;stroke-miterlimit:4;stroke-dasharray:none;stroke-dashoffset:0;stroke-opacity:1"
       d="m 55.364605,261.54395 h 11.272951 c 1.031865,0 1.862572,0.8307 1.862572,1.86257 v 2.45686 c 0,1.03187 -0.830707,1.86258 -1.862572,1.86258 H 55.364605 c -1.031865,0 -1.862572,-0.83071 -1.862572,-1.86258 v -2.45686 c 0,-1.03187 0.830707,-1.86257 1.862572,-1.86257 z"
       id="rect873" />
    <path
       style="opacity:1;vector-effect:none;fill:#ffffff;fill-opacity:1;fill-rule:evenodd;stroke:#000000;stroke-width:0.421;stroke-linecap:round;stroke-linejoin:miter;stroke-miterlimit:4;stroke-dasharray:none;stroke-dashoffset:0;stroke-opacity:1"
       d="m 81.813461,261.83063 h 11.272952 c 1.031864,0 1.862571,0.8307 1.862571,1.86257 v 2.45687 c 0,1.03186 -0.830707,1.86257 -1.862571,1.86257 H 81.813461 c -1.031864,0 -1.862571,-0.83071 -1.862571,-1.86257 v -2.45687 c 0,-1.03187 0.830707,-1.86257 1.862571,-1.86257 z"
       id="rect889" />
    <path
       style="fill:#ffffff;fill-rule:evenodd;stroke:#000000;stroke-width:0.26458332"
       d="m 93.940332,231.24515 a 3.8490922,3.8490922 0 0 1 -3.849092,3.84909 3.8490922,3.8490922 0 0 1 -3.849092,-3.84909 3.8490922,3.8490922 0 0 1 3.849092,-3.84909 3.8490922,3.8490922 0 0 1 3.849092,3.84909 z"
       id="path838" />
    <g
       aria-label="River1"
       style="font-style:normal;font-weight:normal;font-size:9.8777771px;line-height:3.5ex;font-family:sans-serif;letter-spacing:0px;word-spacing:0px;fill:#000000;fill-opacity:1;stroke:none;stroke-width:0.26458332"
       id="text1719">
      <path
         d="m 83.163698,264.92342 q 0.123162,0.0417 0.238745,0.17812 0.117478,0.13642 0.234955,0.37517 l 0.388435,0.77308 h -0.411172 l -0.361907,-0.72571 q -0.140216,-0.28422 -0.272852,-0.37707 -0.130741,-0.0928 -0.358118,-0.0928 h -0.416856 v 1.19562 h -0.38275 v -2.82894 h 0.86403 q 0.485069,0 0.723814,0.20274 0.238745,0.20274 0.238745,0.61202 0,0.26717 -0.125057,0.44339 -0.123162,0.17621 -0.360012,0.24442 z m -0.95877,-1.18804 v 1.00425 h 0.48128 q 0.276641,0 0.416856,-0.12695 0.14211,-0.12885 0.14211,-0.37707 0,-0.24822 -0.14211,-0.37327 -0.140215,-0.12696 -0.416856,-0.12696 z"
         style="font-style:normal;font-variant:normal;font-weight:normal;font-stretch:normal;font-size:3.88055563px;font-family:Lato;-inkscape-font-specification:Lato;stroke-width:0.26458332"
         id="path1035" />
      <path
         d="m 84.505218,264.12761 h 0.348644 v 2.12218 h -0.348644 z m 0,-0.82614 h 0.348644 v 0.44149 h -0.348644 z"
         style="font-style:normal;font-variant:normal;font-weight:normal;font-stretch:normal;font-size:3.88055563px;font-family:Lato;-inkscape-font-specification:Lato;stroke-width:0.26458332"
         id="path1037" />
      <path
         d="m 85.331352,264.12761 h 0.369486 l 0.663181,1.78111 0.663181,-1.78111 h 0.369487 l -0.795818,2.12218 h -0.4737 z"
         style="font-style:normal;font-variant:normal;font-weight:normal;font-stretch:normal;font-size:3.88055563px;font-family:Lato;-inkscape-font-specification:Lato;stroke-width:0.26458332"
         id="path1039" />
      <path
         d="m 89.693187,265.10154 v 0.17053 h -1.603003 q 0.02274,0.36001 0.216008,0.54949 0.195164,0.18759 0.541913,0.18759 0.200849,0 0.388435,-0.0493 0.18948,-0.0493 0.375171,-0.14779 v 0.32969 q -0.187586,0.0796 -0.384645,0.12127 -0.19706,0.0417 -0.399804,0.0417 -0.507807,0 -0.805291,-0.29559 -0.295589,-0.29559 -0.295589,-0.79961 0,-0.52107 0.280431,-0.82613 0.282326,-0.30696 0.759816,-0.30696 0.428225,0 0.676444,0.27664 0.250114,0.27475 0.250114,0.74845 z m -0.348643,-0.10232 q -0.0038,-0.28612 -0.161059,-0.45665 -0.155373,-0.17053 -0.413067,-0.17053 -0.291799,0 -0.468016,0.16484 -0.174322,0.16485 -0.200849,0.46423 z"
         style="font-style:normal;font-variant:normal;font-weight:normal;font-stretch:normal;font-size:3.88055563px;font-family:Lato;-inkscape-font-specification:Lato;stroke-width:0.26458332"
         id="path1041" />
      <path
         d="m 91.495145,264.45351 q -0.05874,-0.0341 -0.128847,-0.0493 -0.06821,-0.017 -0.151584,-0.017 -0.295589,0 -0.454752,0.19327 -0.157269,0.19137 -0.157269,0.55138 v 1.11794 h -0.350539 v -2.12218 h 0.350539 v 0.32969 q 0.109898,-0.19327 0.286115,-0.28611 0.176217,-0.0947 0.428225,-0.0947 0.036,0 0.07958,0.006 0.04358,0.004 0.09664,0.0133 z"
         style="font-style:normal;font-variant:normal;font-weight:normal;font-stretch:normal;font-size:3.88055563px;font-family:Lato;-inkscape-font-specification:Lato;stroke-width:0.26458332"
         id="path1043" />
      <path
         d="m 91.980214,265.92767 h 0.625284 v -2.15818 l -0.680234,0.13643 v -0.34865 l 0.676445,-0.13642 h 0.38275 v 2.50682 h 0.625285 v 0.32212 h -1.62953 z"
         style="font-style:normal;font-variant:normal;font-weight:normal;font-stretch:normal;font-size:3.88055563px;font-family:Lato;-inkscape-font-specification:Lato;stroke-width:0.26458332"
         id="path1045" />
    </g>
    <path
       style="opacity:1;vector-effect:none;fill:#800000;fill-opacity:0.13106797;stroke:#ff0000;stroke-width:0.60000002;stroke-linecap:round;stroke-linejoin:miter;stroke-miterlimit:4;stroke-dasharray:none;stroke-dashoffset:0;stroke-opacity:1"
       d="m 79.976593,258.1247 0.356398,2.55597"
       id="path1733"
       inkscape:connector-curvature="0"
       sodipodi:nodetypes="cc" />
    <g
       aria-label="River2"
       style="font-style:normal;font-weight:normal;font-size:9.8777771px;line-height:3.5ex;font-family:sans-serif;letter-spacing:0px;word-spacing:0px;fill:#000000;fill-opacity:1;stroke:none;stroke-width:0.26458332"
       id="text925">
      <path
         d="m 56.262228,264.78646 q 0.123162,0.0417 0.238745,0.17811 0.117478,0.13643 0.234955,0.37517 l 0.388435,0.77308 h -0.411172 l -0.361908,-0.72571 q -0.140215,-0.28422 -0.272851,-0.37706 -0.130742,-0.0928 -0.358118,-0.0928 h -0.416856 v 1.19562 h -0.382751 v -2.82894 h 0.86403 q 0.48507,0 0.723815,0.20275 0.238745,0.20274 0.238745,0.61202 0,0.26717 -0.125057,0.44338 -0.123162,0.17622 -0.360012,0.24443 z m -0.95877,-1.18804 v 1.00425 h 0.481279 q 0.276642,0 0.416857,-0.12696 0.14211,-0.12884 0.14211,-0.37706 0,-0.24822 -0.14211,-0.37328 -0.140215,-0.12695 -0.416857,-0.12695 z"
         style="font-style:normal;font-variant:normal;font-weight:normal;font-stretch:normal;font-size:3.88055563px;font-family:Lato;-inkscape-font-specification:Lato;stroke-width:0.26458332"
         id="path1022" />
      <path
         d="m 57.603748,263.99064 h 0.348644 v 2.12218 h -0.348644 z m 0,-0.82613 h 0.348644 v 0.44149 h -0.348644 z"
         style="font-style:normal;font-variant:normal;font-weight:normal;font-stretch:normal;font-size:3.88055563px;font-family:Lato;-inkscape-font-specification:Lato;stroke-width:0.26458332"
         id="path1024" />
      <path
         d="m 58.429882,263.99064 h 0.369486 l 0.663181,1.78112 0.663181,-1.78112 h 0.369486 l -0.795817,2.12218 h -0.4737 z"
         style="font-style:normal;font-variant:normal;font-weight:normal;font-stretch:normal;font-size:3.88055563px;font-family:Lato;-inkscape-font-specification:Lato;stroke-width:0.26458332"
         id="path1026" />
      <path
         d="m 62.791717,264.96457 v 0.17054 h -1.603003 q 0.02274,0.36001 0.216008,0.54949 0.195164,0.18758 0.541913,0.18758 0.200849,0 0.388435,-0.0493 0.18948,-0.0493 0.375171,-0.1478 v 0.3297 q -0.187586,0.0796 -0.384645,0.12127 -0.19706,0.0417 -0.399804,0.0417 -0.507807,0 -0.805291,-0.29559 -0.295589,-0.29559 -0.295589,-0.7996 0,-0.52107 0.280431,-0.82614 0.282325,-0.30696 0.759816,-0.30696 0.428225,0 0.676444,0.27665 0.250114,0.27474 0.250114,0.74844 z m -0.348644,-0.10232 q -0.0038,-0.28611 -0.161058,-0.45664 -0.155374,-0.17054 -0.413067,-0.17054 -0.291799,0 -0.468016,0.16485 -0.174322,0.16485 -0.200849,0.46423 z"
         style="font-style:normal;font-variant:normal;font-weight:normal;font-stretch:normal;font-size:3.88055563px;font-family:Lato;-inkscape-font-specification:Lato;stroke-width:0.26458332"
         id="path1028" />
      <path
         d="m 64.593675,264.31655 q -0.05874,-0.0341 -0.128847,-0.0493 -0.06821,-0.0171 -0.151584,-0.0171 -0.295589,0 -0.454753,0.19327 -0.157268,0.19138 -0.157268,0.55139 v 1.11793 h -0.350539 v -2.12218 h 0.350539 v 0.3297 q 0.109898,-0.19327 0.286115,-0.28611 0.176217,-0.0947 0.428225,-0.0947 0.036,0 0.07958,0.006 0.04358,0.004 0.09664,0.0133 z"
         style="font-style:normal;font-variant:normal;font-weight:normal;font-stretch:normal;font-size:3.88055563px;font-family:Lato;-inkscape-font-specification:Lato;stroke-width:0.26458332"
         id="path1030" />
      <path
         d="m 65.342121,265.79071 h 1.335836 v 0.32211 h -1.796273 v -0.32211 q 0.217902,-0.22548 0.593073,-0.60444 0.377066,-0.38086 0.473701,-0.49076 0.183796,-0.20653 0.255798,-0.34864 0.0739,-0.14401 0.0739,-0.28233 0,-0.22548 -0.159163,-0.36759 -0.157269,-0.14211 -0.411172,-0.14211 -0.180006,0 -0.380855,0.0625 -0.198955,0.0625 -0.426331,0.18948 v -0.38654 q 0.231166,-0.0928 0.432015,-0.14022 0.200849,-0.0474 0.367592,-0.0474 0.439594,0 0.701077,0.2198 0.261482,0.2198 0.261482,0.58739 0,0.17432 -0.06632,0.33159 -0.06442,0.15537 -0.23685,0.36759 -0.04737,0.055 -0.301274,0.31833 -0.253903,0.26148 -0.716235,0.73329 z"
         style="font-style:normal;font-variant:normal;font-weight:normal;font-stretch:normal;font-size:3.88055563px;font-family:Lato;-inkscape-font-specification:Lato;stroke-width:0.26458332"
         id="path1032" />
    </g>
    <path
       inkscape:connector-curvature="0"
       id="path927"
       d="m 55.106586,255.78347 0.142559,3.44696"
       style="opacity:1;vector-effect:none;fill:#800000;fill-opacity:0.13106797;stroke:#ff0000;stroke-width:0.5;stroke-linecap:round;stroke-linejoin:miter;stroke-miterlimit:4;stroke-dasharray:none;stroke-dashoffset:0;stroke-opacity:1"
       sodipodi:nodetypes="cc" />
    <g
       aria-label="Fjord1"
       style="font-style:normal;font-weight:normal;font-size:9.8777771px;line-height:3.5ex;font-family:sans-serif;letter-spacing:0px;word-spacing:0px;fill:#000000;fill-opacity:1;stroke:none;stroke-width:0.26458332"
       id="text931">
      <path
         d="m 40.151432,237.32949 h 1.62574 v 0.32212 h -1.24299 v 0.83371 h 1.121723 v 0.32212 h -1.121723 v 1.35099 h -0.38275 z"
         style="font-style:normal;font-variant:normal;font-weight:normal;font-stretch:normal;font-size:3.88055563px;font-family:Lato;-inkscape-font-specification:Lato;stroke-width:0.26458332"
         id="path1009" />
      <path
         d="m 42.37214,238.03625 h 0.348644 v 2.16008 q 0,0.40549 -0.155374,0.58739 -0.153479,0.1819 -0.496438,0.1819 h -0.132636 v -0.29559 h 0.09285 q 0.198954,0 0.270957,-0.0928 0.072,-0.0909 0.072,-0.38085 z m 0,-0.82613 h 0.348644 v 0.44149 H 42.37214 Z"
         style="font-style:normal;font-variant:normal;font-weight:normal;font-stretch:normal;font-size:3.88055563px;font-family:Lato;-inkscape-font-specification:Lato;stroke-width:0.26458332"
         id="path1011" />
      <path
         d="m 44.270732,238.28068 q -0.28043,0 -0.443383,0.2198 -0.162953,0.2179 -0.162953,0.59876 0,0.38085 0.161058,0.60065 0.162953,0.2179 0.445278,0.2179 0.278536,0 0.441489,-0.2198 0.162953,-0.21979 0.162953,-0.59875 0,-0.37707 -0.162953,-0.59687 -0.162953,-0.22169 -0.441489,-0.22169 z m 0,-0.29559 q 0.454753,0 0.714341,0.29559 0.259588,0.29559 0.259588,0.81856 0,0.52107 -0.259588,0.81855 -0.259588,0.29559 -0.714341,0.29559 -0.456647,0 -0.716235,-0.29559 -0.257693,-0.29748 -0.257693,-0.81855 0,-0.52297 0.257693,-0.81856 0.259588,-0.29559 0.716235,-0.29559 z"
         style="font-style:normal;font-variant:normal;font-weight:normal;font-stretch:normal;font-size:3.88055563px;font-family:Lato;-inkscape-font-specification:Lato;stroke-width:0.26458332"
         id="path1013" />
      <path
         d="m 47.050408,238.36216 q -0.05874,-0.0341 -0.128847,-0.0493 -0.06821,-0.0171 -0.151584,-0.0171 -0.295589,0 -0.454752,0.19327 -0.157269,0.19138 -0.157269,0.55139 v 1.11793 h -0.350539 v -2.12218 h 0.350539 v 0.3297 q 0.109898,-0.19327 0.286115,-0.28612 0.176217,-0.0947 0.428225,-0.0947 0.036,0 0.07958,0.006 0.04358,0.004 0.09663,0.0133 z"
         style="font-style:normal;font-variant:normal;font-weight:normal;font-stretch:normal;font-size:3.88055563px;font-family:Lato;-inkscape-font-specification:Lato;stroke-width:0.26458332"
         id="path1015" />
      <path
         d="m 48.748151,238.35837 v -1.14825 h 0.348644 v 2.94831 h -0.348644 v -0.31832 q -0.109898,0.18948 -0.278536,0.28232 -0.166742,0.0909 -0.401698,0.0909 -0.384645,0 -0.62718,-0.30696 -0.24064,-0.30695 -0.24064,-0.80718 0,-0.50023 0.24064,-0.80719 0.242535,-0.30696 0.62718,-0.30696 0.234956,0 0.401698,0.0928 0.168638,0.0909 0.278536,0.28043 z m -1.188041,0.74087 q 0,0.38464 0.157269,0.60444 0.159163,0.2179 0.435804,0.2179 0.276641,0 0.435805,-0.2179 0.159163,-0.2198 0.159163,-0.60444 0,-0.38465 -0.159163,-0.60255 -0.159164,-0.2198 -0.435805,-0.2198 -0.276641,0 -0.435804,0.2198 -0.157269,0.2179 -0.157269,0.60255 z"
         style="font-style:normal;font-variant:normal;font-weight:normal;font-stretch:normal;font-size:3.88055563px;font-family:Lato;-inkscape-font-specification:Lato;stroke-width:0.26458332"
         id="path1017" />
      <path
         d="m 49.930508,239.83632 h 0.625285 v -2.15818 l -0.680234,0.13642 v -0.34864 l 0.676444,-0.13643 h 0.38275 v 2.50683 h 0.625285 v 0.32211 h -1.62953 z"
         style="font-style:normal;font-variant:normal;font-weight:normal;font-stretch:normal;font-size:3.88055563px;font-family:Lato;-inkscape-font-specification:Lato;stroke-width:0.26458332"
         id="path1019" />
    </g>
    <g
       aria-label="Fjord2"
       style="font-style:normal;font-weight:normal;font-size:9.8777771px;line-height:3.5ex;font-family:sans-serif;letter-spacing:0px;word-spacing:0px;fill:#000000;fill-opacity:1;stroke:none;stroke-width:0.26458332"
       id="text937">
      <path
         d="m 21.477171,260.76893 h 1.62574 v 0.32212 h -1.24299 v 0.83371 h 1.121723 v 0.32212 h -1.121723 v 1.35099 h -0.38275 z"
         style="font-style:normal;font-variant:normal;font-weight:normal;font-stretch:normal;font-size:3.88055563px;font-family:Lato;-inkscape-font-specification:Lato;stroke-width:0.26458332"
         id="path996" />
      <path
         d="m 23.697879,261.47569 h 0.348644 v 2.16008 q 0,0.40548 -0.155374,0.58738 -0.153479,0.18191 -0.496438,0.18191 h -0.132636 v -0.29559 h 0.09285 q 0.198954,0 0.270957,-0.0928 0.072,-0.0909 0.072,-0.38085 z m 0,-0.82613 h 0.348644 v 0.44149 h -0.348644 z"
         style="font-style:normal;font-variant:normal;font-weight:normal;font-stretch:normal;font-size:3.88055563px;font-family:Lato;-inkscape-font-specification:Lato;stroke-width:0.26458332"
         id="path998" />
      <path
         d="m 25.596471,261.72012 q -0.28043,0 -0.443383,0.2198 -0.162954,0.2179 -0.162954,0.59876 0,0.38085 0.161059,0.60065 0.162953,0.2179 0.445278,0.2179 0.278536,0 0.441489,-0.2198 0.162953,-0.21979 0.162953,-0.59875 0,-0.37707 -0.162953,-0.59687 -0.162953,-0.22169 -0.441489,-0.22169 z m 0,-0.29559 q 0.454753,0 0.714341,0.29559 0.259588,0.29559 0.259588,0.81856 0,0.52107 -0.259588,0.81855 -0.259588,0.29559 -0.714341,0.29559 -0.456647,0 -0.716235,-0.29559 -0.257693,-0.29748 -0.257693,-0.81855 0,-0.52297 0.257693,-0.81856 0.259588,-0.29559 0.716235,-0.29559 z"
         style="font-style:normal;font-variant:normal;font-weight:normal;font-stretch:normal;font-size:3.88055563px;font-family:Lato;-inkscape-font-specification:Lato;stroke-width:0.26458332"
         id="path1000" />
      <path
         d="m 28.376147,261.8016 q -0.05874,-0.0341 -0.128847,-0.0493 -0.06821,-0.017 -0.151584,-0.017 -0.295589,0 -0.454753,0.19327 -0.157268,0.19137 -0.157268,0.55139 v 1.11793 h -0.350539 v -2.12218 h 0.350539 v 0.3297 q 0.109898,-0.19327 0.286115,-0.28612 0.176217,-0.0947 0.428225,-0.0947 0.036,0 0.07958,0.006 0.04358,0.004 0.09663,0.0133 z"
         style="font-style:normal;font-variant:normal;font-weight:normal;font-stretch:normal;font-size:3.88055563px;font-family:Lato;-inkscape-font-specification:Lato;stroke-width:0.26458332"
         id="path1002" />
      <path
         d="m 30.07389,261.79781 v -1.14825 h 0.348644 v 2.94831 H 30.07389 v -0.31833 q -0.109898,0.18948 -0.278536,0.28233 -0.166743,0.091 -0.401698,0.091 -0.384645,0 -0.62718,-0.30696 -0.24064,-0.30696 -0.24064,-0.80718 0,-0.50023 0.24064,-0.80719 0.242535,-0.30696 0.62718,-0.30696 0.234955,0 0.401698,0.0928 0.168638,0.091 0.278536,0.28043 z m -1.188041,0.74087 q 0,0.38464 0.157268,0.60444 0.159164,0.2179 0.435805,0.2179 0.276641,0 0.435805,-0.2179 0.159163,-0.2198 0.159163,-0.60444 0,-0.38465 -0.159163,-0.60255 -0.159164,-0.2198 -0.435805,-0.2198 -0.276641,0 -0.435805,0.2198 -0.157268,0.2179 -0.157268,0.60255 z"
         style="font-style:normal;font-variant:normal;font-weight:normal;font-stretch:normal;font-size:3.88055563px;font-family:Lato;-inkscape-font-specification:Lato;stroke-width:0.26458332"
         id="path1004" />
      <path
         d="m 31.519625,263.27575 h 1.335835 v 0.32212 h -1.796272 v -0.32212 q 0.217902,-0.22548 0.593073,-0.60444 0.377065,-0.38085 0.4737,-0.49075 0.183796,-0.20654 0.255799,-0.34865 0.0739,-0.144 0.0739,-0.28232 0,-0.22548 -0.159163,-0.36759 -0.157269,-0.14211 -0.411173,-0.14211 -0.180006,0 -0.380855,0.0625 -0.198954,0.0625 -0.42633,0.18949 v -0.38654 q 0.231166,-0.0928 0.432015,-0.14022 0.200849,-0.0474 0.367591,-0.0474 0.439594,0 0.701077,0.2198 0.261483,0.21979 0.261483,0.58739 0,0.17432 -0.06632,0.33159 -0.06442,0.15537 -0.23685,0.36759 -0.04737,0.055 -0.301274,0.31832 -0.253904,0.26149 -0.716235,0.73329 z"
         style="font-style:normal;font-variant:normal;font-weight:normal;font-stretch:normal;font-size:3.88055563px;font-family:Lato;-inkscape-font-specification:Lato;stroke-width:0.26458332"
         id="path1006" />
    </g>
    <path
       inkscape:connector-curvature="0"
       id="path939"
       d="m 19.126715,242.83842 2.74341,14.63267"
       style="opacity:1;vector-effect:none;fill:#800000;fill-opacity:0.13106797;stroke:#ff0000;stroke-width:0.60000002;stroke-linecap:round;stroke-linejoin:miter;stroke-miterlimit:4;stroke-dasharray:none;stroke-dashoffset:0;stroke-opacity:1"
       sodipodi:nodetypes="cc" />
    <g
       aria-label="A"
       style="font-style:normal;font-weight:normal;font-size:9.8777771px;line-height:3.5ex;font-family:sans-serif;letter-spacing:0px;word-spacing:0px;fill:#000000;fill-opacity:1;stroke:none;stroke-width:0.26458332"
       id="text836">
      <path
         d="m 89.988542,229.39602 -0.755165,2.04777 h 1.513086 z m -0.314193,-0.54845 h 0.631141 l 1.568208,4.11482 h -0.578776 l -0.374827,-1.05558 h -1.854839 l -0.374826,1.05558 h -0.587045 z"
         style="font-style:normal;font-variant:normal;font-weight:normal;font-stretch:normal;font-size:5.64444447px;font-family:Lato;-inkscape-font-specification:Lato;stroke-width:0.26458332"
         id="path993" />
    </g>
    <path
       style="opacity:1;vector-effect:none;fill:#800000;fill-opacity:0.13106797;stroke:#ff0000;stroke-width:0.60000002;stroke-linecap:round;stroke-linejoin:miter;stroke-miterlimit:4;stroke-dasharray:none;stroke-dashoffset:0;stroke-opacity:1"
       d="m 38.784639,245.03373 1.154752,6.79886"
       id="path931"
       inkscape:connector-curvature="0" />
  </g>
</svg>
