<?xml version="1.0" encoding="UTF-8" standalone="no"?>
<!-- Created with Inkscape (http://www.inkscape.org/) -->

<svg
   xmlns:dc="http://purl.org/dc/elements/1.1/"
   xmlns:cc="http://creativecommons.org/ns#"
   xmlns:rdf="http://www.w3.org/1999/02/22-rdf-syntax-ns#"
   xmlns:svg="http://www.w3.org/2000/svg"
   xmlns="http://www.w3.org/2000/svg"
   xmlns:sodipodi="http://sodipodi.sourceforge.net/DTD/sodipodi-0.dtd"
   xmlns:inkscape="http://www.inkscape.org/namespaces/inkscape"
   width="165.39996mm"
   height="108.50269mm"
   viewBox="0 0 165.39996 108.50269"
   version="1.1"
   id="svg5219"
   inkscape:version="0.92.4 (5da689c313, 2019-01-14)"
   sodipodi:docname="one_way_efficiency_b.svg">
  <defs
     id="defs5213">
    <marker
       inkscape:stockid="Arrow2Send"
       orient="auto"
       refY="0"
       refX="0"
       id="marker953"
       style="overflow:visible"
       inkscape:isstock="true">
      <path
         inkscape:connector-curvature="0"
         id="path951"
         style="fill:#323232;fill-opacity:1;fill-rule:evenodd;stroke:#323232;stroke-width:0.625;stroke-linejoin:round;stroke-opacity:1"
         d="M 8.7185878,4.0337352 -2.2072895,0.01601326 8.7185884,-4.0017078 c -1.7454984,2.3720609 -1.7354408,5.6174519 -6e-7,8.035443 z"
         transform="matrix(-0.3,0,0,-0.3,0.69,0)" />
    </marker>
    <marker
       inkscape:stockid="Arrow2Send"
       orient="auto"
       refY="0"
       refX="0"
       id="marker2165"
       style="overflow:visible"
       inkscape:isstock="true">
      <path
         inkscape:connector-curvature="0"
         id="path2163"
         style="fill:#323232;fill-opacity:1;fill-rule:evenodd;stroke:#323232;stroke-width:0.625;stroke-linejoin:round;stroke-opacity:1"
         d="M 8.7185878,4.0337352 -2.2072895,0.01601326 8.7185884,-4.0017078 c -1.7454984,2.3720609 -1.7354408,5.6174519 -6e-7,8.035443 z"
         transform="matrix(-0.3,0,0,-0.3,0.69,0)" />
    </marker>
    <marker
       inkscape:isstock="true"
       style="overflow:visible"
       id="marker970"
       refX="0"
       refY="0"
       orient="auto"
       inkscape:stockid="Arrow2Send">
      <path
         transform="matrix(-0.3,0,0,-0.3,0.69,0)"
         d="M 8.7185878,4.0337352 -2.2072895,0.01601326 8.7185884,-4.0017078 c -1.7454984,2.3720609 -1.7354408,5.6174519 -6e-7,8.035443 z"
         style="fill:#323232;fill-opacity:1;fill-rule:evenodd;stroke:#323232;stroke-width:0.625;stroke-linejoin:round;stroke-opacity:1"
         id="path968"
         inkscape:connector-curvature="0" />
    </marker>
    <marker
       inkscape:isstock="true"
       style="overflow:visible"
       id="marker3480"
       refX="0"
       refY="0"
       orient="auto"
       inkscape:stockid="Arrow2Send">
      <path
         inkscape:connector-curvature="0"
         transform="matrix(-0.3,0,0,-0.3,0.69,0)"
         d="M 8.7185878,4.0337352 -2.2072895,0.01601326 8.7185884,-4.0017078 c -1.7454984,2.3720609 -1.7354408,5.6174519 -6e-7,8.035443 z"
         style="fill:#389615;fill-opacity:1;fill-rule:evenodd;stroke:#389615;stroke-width:0.625;stroke-linejoin:round;stroke-opacity:1"
         id="path3478" />
    </marker>
    <filter
       inkscape:collect="always"
       style="color-interpolation-filters:sRGB"
       id="filter921"
       x="-0.036349691"
       width="1.0726994"
       y="-0.03565697"
       height="1.0713139">
      <feGaussianBlur
         inkscape:collect="always"
         stdDeviation="2.7993861"
         id="feGaussianBlur923" />
    </filter>
  </defs>
  <sodipodi:namedview
     id="base"
     pagecolor="#ffffff"
     bordercolor="#666666"
     borderopacity="1.0"
     inkscape:pageopacity="0.0"
     inkscape:pageshadow="2"
     inkscape:zoom="1"
     inkscape:cx="290.69043"
     inkscape:cy="131.88912"
     inkscape:document-units="mm"
     inkscape:current-layer="layer1"
     showgrid="false"
     fit-margin-top="0"
     fit-margin-left="0"
     fit-margin-right="0"
     fit-margin-bottom="0"
     inkscape:window-width="1920"
     inkscape:window-height="1001"
     inkscape:window-x="-9"
     inkscape:window-y="-9"
     inkscape:window-maximized="1" />
  <metadata
     id="metadata5216">
    <rdf:RDF>
      <cc:Work
         rdf:about="">
        <dc:format>image/svg+xml</dc:format>
        <dc:type
           rdf:resource="http://purl.org/dc/dcmitype/StillImage" />
        <dc:title />
      </cc:Work>
    </rdf:RDF>
  </metadata>
  <g
     inkscape:label="Layer 1"
     inkscape:groupmode="layer"
     id="layer1"
     transform="translate(-104.13465,-97.98032)">
    <path
       transform="matrix(1.796311,0,0,1.5894017,-22.637227,-7.9594882)"
       sodipodi:nodetypes="ssscs"
       inkscape:connector-curvature="0"
       id="path2055"
       d="m 74.860857,102.58275 c 5.408407,28.89604 11.025323,31.43045 41.272323,30.0921 30.00853,-1.3278 43.18454,-20.32238 43.37277,-25.41889 1.32983,-36.006237 -51.02679,-28.726199 -51.02679,-28.726199 -30.58783,0.736416 -38.030925,0.477232 -33.618303,24.052989 z"
       style="display:inline;opacity:1;vector-effect:none;fill:#e6f1ba;fill-opacity:1;stroke:none;stroke-width:1;stroke-linecap:butt;stroke-linejoin:miter;stroke-miterlimit:4;stroke-dasharray:none;stroke-dashoffset:0;stroke-opacity:1;filter:url(#filter921)" />
    <path
       id="path2059"
       style="opacity:1;vector-effect:none;fill:#a4efef;fill-opacity:1;fill-rule:evenodd;stroke:none;stroke-width:1;stroke-linecap:butt;stroke-linejoin:miter;stroke-miterlimit:4;stroke-dasharray:none;stroke-dashoffset:0;stroke-opacity:1"
       d="m 267.45393,152.92872 c -0.83055,-0.0877 -5.94391,1.51568 -6.73489,1.44138 -20.74549,-1.94815 -28.18601,0.32993 -38.32266,-13.84052 -7.43019,-10.38699 -33.46833,-9.41144 -46.15704,-7.96436 -13.14739,1.49939 -24.53639,5.97081 -37.95228,11.75985 -4.11589,1.77603 -11.00081,-19.38089 -20.04522,-25.12333 l -8.93008,8.57661 c 10.09298,4.80952 14.48296,17.03906 21.9161,25.3906 7.08565,40.46717 55.54839,27.772 84.80021,24.55628 9.05138,-0.99504 15.46436,-12.59566 23.96238,-13.11727 7.54433,-0.46307 20.97751,-2.23415 27.78125,1.05834 m -74.24222,-3.57123 c -5.25061,1.11642 -18.64665,14.02156 -9.14703,13.49373 2.83479,-0.15751 16.71951,-3.58578 26.15595,-4.80029 20.76191,-7.3668 -3.17531,-12.4397 -17.00892,-8.69344 z m -40.58899,-13.9453 c -5.90081,2.66045 -15.47345,14.28866 -1.16219,18.13151 5.53181,1.41905 14.66336,5.79781 18.29784,2.57765 4.80265,-4.25515 17.50702,-13.35674 22.88637,-14.3234 15.95728,-1.08743 32.36042,5.35763 25.89137,-6.80356 -4.87109,-11.19765 -45.88351,-8.61291 -65.91339,0.4178 z"
       inkscape:connector-curvature="0"
       sodipodi:nodetypes="csssscccasccsccsccccs" />
    <path
       style="display:inline;opacity:1;vector-effect:none;fill:#ffffff;fill-opacity:1;fill-rule:evenodd;stroke:#969696;stroke-width:1;stroke-linecap:butt;stroke-linejoin:miter;stroke-miterlimit:4;stroke-dasharray:none;stroke-dashoffset:0;stroke-opacity:1"
       d="m 115.83342,144.95535 h 4.14268 c 1.03647,0 1.87088,0.83442 1.87088,1.87089 v 4.14267 c 0,1.03648 -0.83441,1.87089 -1.87088,1.87089 h -4.14268 c -1.03647,0 -1.87089,-0.83441 -1.87089,-1.87089 v -4.14267 c 0,-1.03647 0.83442,-1.87089 1.87089,-1.87089 z"
       id="rect2061"
       inkscape:connector-curvature="0" />
    <g
       aria-label="A"
       style="font-style:normal;font-weight:normal;font-size:10.58333302px;line-height:1.25;font-family:sans-serif;letter-spacing:0px;word-spacing:0px;display:inline;fill:#000000;fill-opacity:1;stroke:none;stroke-width:0.26458332"
       id="text2065"
       transform="translate(0,5.2916669)">
      <path
         d="m 117.87019,141.93233 -0.84956,2.30374 h 1.70222 z m -0.35346,-0.61702 h 0.71003 l 1.76423,4.62918 h -0.65112 l -0.42168,-1.18753 h -2.08669 l -0.42168,1.18753 h -0.66043 z"
         style="font-size:6.3499999px;stroke-width:0.26458332"
         id="path935"
         inkscape:connector-curvature="0" />
    </g>
    <path
       style="display:inline;opacity:1;vector-effect:none;fill:#ffffff;fill-opacity:1;fill-rule:evenodd;stroke:#969696;stroke-width:1;stroke-linecap:butt;stroke-linejoin:miter;stroke-miterlimit:4;stroke-dasharray:none;stroke-dashoffset:0;stroke-opacity:1"
       d="m 145.03944,129.67922 h 4.14267 c 1.03647,0 1.87089,0.83442 1.87089,1.87089 v 4.14267 c 0,1.03648 -0.83442,1.87089 -1.87089,1.87089 h -4.14267 c -1.03648,0 -1.87089,-0.83441 -1.87089,-1.87089 v -4.14267 c 0,-1.03647 0.83441,-1.87089 1.87089,-1.87089 z"
       id="rect2067"
       inkscape:connector-curvature="0" />
    <g
       aria-label="B"
       style="font-style:normal;font-weight:normal;font-size:10.58333302px;line-height:1.25;font-family:sans-serif;letter-spacing:0px;word-spacing:0px;display:inline;fill:#000000;fill-opacity:1;stroke:none;stroke-width:0.26458332"
       id="text2071"
       transform="translate(0,5.2916669)">
      <path
         d="m 146.15533,128.45765 v 1.69602 h 1.00459 q 0.50539,0 0.74724,-0.20774 0.24495,-0.21084 0.24495,-0.64182 0,-0.43408 -0.24495,-0.63872 -0.24185,-0.20774 -0.74724,-0.20774 z m 0,-1.90376 v 1.39526 h 0.92707 q 0.45889,0 0.68213,-0.17053 0.22635,-0.17363 0.22635,-0.5271 0,-0.35037 -0.22635,-0.524 -0.22324,-0.17363 -0.68213,-0.17363 z m -0.62632,-0.5147 h 1.5999 q 0.71624,0 1.10381,0.29766 0.38757,0.29765 0.38757,0.84646 0,0.42478 -0.19843,0.67592 -0.19844,0.25115 -0.58291,0.31316 0.46198,0.0992 0.71623,0.41548 0.25735,0.31316 0.25735,0.78445 0,0.62012 -0.42168,0.95808 -0.42168,0.33797 -1.19993,0.33797 h -1.66191 z"
         style="font-size:6.3499999px;stroke-width:0.26458332"
         id="path939"
         inkscape:connector-curvature="0" />
    </g>
    <path
       style="display:inline;opacity:1;vector-effect:none;fill:#ffffff;fill-opacity:1;fill-rule:evenodd;stroke:#969696;stroke-width:1;stroke-linecap:butt;stroke-linejoin:miter;stroke-miterlimit:4;stroke-dasharray:none;stroke-dashoffset:0;stroke-opacity:1"
       d="m 224.39023,128.77265 h 4.14268 c 1.03647,0 1.87089,0.83441 1.87089,1.87089 v 4.14267 c 0,1.03647 -0.83442,1.87089 -1.87089,1.87089 h -4.14268 c -1.03647,0 -1.87088,-0.83442 -1.87088,-1.87089 v -4.14267 c 0,-1.03648 0.83441,-1.87089 1.87088,-1.87089 z"
       id="rect2073"
       inkscape:connector-curvature="0" />
    <g
       aria-label="C"
       style="font-style:normal;font-weight:normal;font-size:10.58333302px;line-height:1.25;font-family:sans-serif;letter-spacing:0px;word-spacing:0px;display:inline;fill:#000000;fill-opacity:1;stroke:none;stroke-width:0.26458332"
       id="text2077"
       transform="translate(0,5.2916669)">
      <path
         d="m 228.3463,125.48917 v 0.66043 q -0.31626,-0.29456 -0.67593,-0.44029 -0.35657,-0.14572 -0.75965,-0.14572 -0.79375,0 -1.21543,0.48679 -0.42168,0.48369 -0.42168,1.40146 0,0.91468 0.42168,1.40147 0.42168,0.48369 1.21543,0.48369 0.40308,0 0.75965,-0.14573 0.35967,-0.14573 0.67593,-0.44028 v 0.65422 q -0.32867,0.22324 -0.69764,0.33487 -0.36587,0.11162 -0.77514,0.11162 -1.0511,0 -1.65572,-0.64182 -0.60461,-0.64493 -0.60461,-1.75804 0,-1.11621 0.60461,-1.75803 0.60462,-0.64492 1.65572,-0.64492 0.41548,0 0.78134,0.11162 0.36897,0.10852 0.69144,0.32866 z"
         style="font-size:6.3499999px;stroke-width:0.26458332"
         id="path943"
         inkscape:connector-curvature="0" />
    </g>
    <path
       sodipodi:nodetypes="cssssccsccsccccsccasc"
       inkscape:connector-curvature="0"
       d="m 118.24184,119.20174 c 9.04441,5.74244 15.92933,26.89936 20.04522,25.12333 13.41589,-5.78904 24.80489,-10.26046 37.95228,-11.75985 12.68871,-1.44708 38.72685,-2.42263 46.15704,7.96436 10.13665,14.17045 17.57717,11.89237 38.32266,13.84052 0.79098,0.0743 5.90434,-1.5291 6.73489,-1.44138 m -73.92445,9.16635 c -5.25061,1.11642 -18.64665,14.02156 -9.14703,13.49373 2.83479,-0.15751 16.71951,-3.58578 26.15595,-4.80029 20.76191,-7.3668 -3.17531,-12.4397 -17.00892,-8.69344 z m -40.58899,-13.9453 c -5.90081,2.66045 -15.47345,14.28866 -1.16219,18.13151 5.53181,1.41905 14.66336,5.79781 18.29784,2.57765 4.80265,-4.25515 17.50702,-13.35674 22.88637,-14.3234 15.95728,-1.08743 32.36042,5.35763 25.89137,-6.80356 -4.87109,-11.19765 -45.88351,-8.61291 -65.91339,0.4178 z m -43.62873,-20.37142 c 10.09298,4.80952 14.48296,17.03906 21.9161,25.3906 7.08565,40.46717 55.54839,27.772 84.80021,24.55628 9.05138,-0.99504 15.46436,-12.59566 23.96238,-13.11727 7.54433,-0.46307 20.97751,-2.23415 27.78125,1.05834"
       style="opacity:1;vector-effect:none;fill:none;fill-opacity:1;stroke:#323232;stroke-width:1;stroke-linecap:butt;stroke-linejoin:miter;stroke-miterlimit:4;stroke-dasharray:none;stroke-dashoffset:0;stroke-opacity:1"
       id="path2079" />
    <path
       style="display:inline;opacity:1;vector-effect:none;fill:none;fill-opacity:1;stroke:#999797;stroke-width:1;stroke-linecap:round;stroke-linejoin:miter;stroke-miterlimit:4;stroke-dasharray:none;stroke-dashoffset:0;stroke-opacity:1"
       d="m 132.56579,137.47265 -8.86674,6.15978"
       id="path2081"
       inkscape:connector-curvature="0"
       sodipodi:nodetypes="cc" />
    <path
       sodipodi:nodetypes="cc"
       inkscape:connector-curvature="0"
       id="path2083"
       d="m 147.81805,139.9526 3.81282,9.50679"
       style="display:inline;opacity:1;vector-effect:none;fill:none;fill-opacity:1;stroke:#999797;stroke-width:1;stroke-linecap:round;stroke-linejoin:miter;stroke-miterlimit:4;stroke-dasharray:none;stroke-dashoffset:0;stroke-opacity:1" />
    <path
       style="display:inline;opacity:1;vector-effect:none;fill:none;fill-opacity:1;stroke:#999797;stroke-width:1;stroke-linecap:round;stroke-linejoin:miter;stroke-miterlimit:4;stroke-dasharray:none;stroke-dashoffset:0;stroke-opacity:1"
       d="m 221.3554,138.11972 -5.28857,7.29593"
       id="path2085"
       inkscape:connector-curvature="0"
       sodipodi:nodetypes="cc" />
    <path
       sodipodi:nodetypes="cc"
       inkscape:connector-curvature="0"
       id="path2088"
       d="m 146.21757,162.74928 -7.83696,8.25975"
       style="display:inline;opacity:1;vector-effect:none;fill:none;fill-opacity:1;stroke:#0015ff;stroke-width:1;stroke-linecap:round;stroke-linejoin:miter;stroke-miterlimit:4;stroke-dasharray:none;stroke-dashoffset:0;stroke-opacity:1" />
    <path
       style="display:inline;opacity:1;vector-effect:none;fill:none;fill-opacity:1;stroke:#00c411;stroke-width:1;stroke-linecap:round;stroke-linejoin:miter;stroke-miterlimit:4;stroke-dasharray:none;stroke-dashoffset:0;stroke-opacity:1"
       d="m 209.41835,154.30856 -0.78239,7.50847"
       id="path2090"
       inkscape:connector-curvature="0"
       sodipodi:nodetypes="cc" />
    <path
       sodipodi:nodetypes="cc"
       inkscape:connector-curvature="0"
       id="path2092"
       d="m 213.66303,168.84668 2.29695,9.50128"
       style="display:inline;opacity:1;vector-effect:none;fill:none;fill-opacity:1;stroke:#00c411;stroke-width:1;stroke-linecap:round;stroke-linejoin:miter;stroke-miterlimit:4;stroke-dasharray:none;stroke-dashoffset:0;stroke-opacity:1" />
    <path
       sodipodi:nodetypes="cc"
       inkscape:connector-curvature="0"
       id="path2094"
       d="m 255.99988,153.37409 0.0539,10.95259"
       style="display:inline;opacity:1;vector-effect:none;fill:none;fill-opacity:1;stroke:#ff0000;stroke-width:1;stroke-linecap:round;stroke-linejoin:miter;stroke-miterlimit:4;stroke-dasharray:none;stroke-dashoffset:0;stroke-opacity:1" />
    <path
       style="display:inline;opacity:1;vector-effect:none;fill:#ffffff;fill-opacity:1;fill-rule:evenodd;stroke:#0040ff;stroke-width:1;stroke-linecap:butt;stroke-linejoin:miter;stroke-miterlimit:4;stroke-dasharray:none;stroke-dashoffset:0;stroke-opacity:1"
       d="m 132.89622,173.1257 h 4.14267 c 1.03648,0 1.87089,0.83442 1.87089,1.87089 v 4.14267 c 0,1.03648 -0.83441,1.87089 -1.87089,1.87089 h -4.14267 c -1.03647,0 -1.87089,-0.83441 -1.87089,-1.87089 v -4.14267 c 0,-1.03647 0.83442,-1.87089 1.87089,-1.87089 z"
       id="rect2096"
       inkscape:connector-curvature="0" />
    <g
       aria-label="D"
       style="font-style:normal;font-weight:normal;font-size:10.58333302px;line-height:1.25;font-family:sans-serif;letter-spacing:0px;word-spacing:0px;display:inline;fill:#000000;fill-opacity:1;stroke:none;stroke-width:0.26458332"
       id="text2100"
       transform="translate(0,5.2916669)">
      <path
         d="m 134.01211,170.00034 v 3.59979 h 0.75654 q 0.95808,0 1.40147,-0.43409 0.44648,-0.43408 0.44648,-1.37046 0,-0.93017 -0.44648,-1.36115 -0.44339,-0.43409 -1.40147,-0.43409 z m -0.62632,-0.51469 h 1.28674 q 1.34566,0 1.97508,0.5612 0.62942,0.55811 0.62942,1.74873 0,1.19683 -0.63252,1.75804 -0.63252,0.5612 -1.97198,0.5612 h -1.28674 z"
         style="font-size:6.3499999px;stroke-width:0.26458332"
         id="path947"
         inkscape:connector-curvature="0" />
    </g>
    <path
       style="display:inline;opacity:1;vector-effect:none;fill:#ffffff;fill-opacity:1;fill-rule:evenodd;stroke:#20e800;stroke-width:1;stroke-linecap:butt;stroke-linejoin:miter;stroke-miterlimit:4;stroke-dasharray:none;stroke-dashoffset:0;stroke-opacity:1"
       d="m 202.61393,144.81527 h 4.14268 c 1.03647,0 1.87088,0.83442 1.87088,1.87089 v 4.14268 c 0,1.03647 -0.83441,1.87089 -1.87088,1.87089 h -4.14268 c -1.03647,0 -1.87089,-0.83442 -1.87089,-1.87089 v -4.14268 c 0,-1.03647 0.83442,-1.87089 1.87089,-1.87089 z"
       id="rect2102"
       inkscape:connector-curvature="0" />
    <g
       aria-label="E"
       style="font-style:normal;font-weight:normal;font-size:10.58333302px;line-height:1.25;font-family:sans-serif;letter-spacing:0px;word-spacing:0px;display:inline;fill:#000000;fill-opacity:1;stroke:none;stroke-width:0.26458332"
       id="text2106"
       transform="translate(0,5.2916669)">
      <path
         d="m 203.1035,141.17522 h 2.92696 v 0.5271 h -2.30064 v 1.37046 h 2.20452 v 0.5271 h -2.20452 v 1.67742 h 2.35645 v 0.5271 h -2.98277 z"
         style="font-size:6.3499999px;stroke-width:0.26458332"
         id="path952"
         inkscape:connector-curvature="0" />
    </g>
    <path
       style="display:inline;opacity:1;vector-effect:none;fill:#ffffff;fill-opacity:1;fill-rule:evenodd;stroke:#20e800;stroke-width:1;stroke-linecap:butt;stroke-linejoin:miter;stroke-miterlimit:4;stroke-dasharray:none;stroke-dashoffset:0;stroke-opacity:1"
       d="m 213.32954,179.87257 h 4.14267 c 1.03647,0 1.87089,0.83442 1.87089,1.87089 v 4.14268 c 0,1.03647 -0.83442,1.87088 -1.87089,1.87088 h -4.14267 c -1.03648,0 -1.87089,-0.83441 -1.87089,-1.87088 v -4.14268 c 0,-1.03647 0.83441,-1.87089 1.87089,-1.87089 z"
       id="rect2108"
       inkscape:connector-curvature="0" />
    <g
       aria-label="F"
       style="font-style:normal;font-weight:normal;font-size:10.58333302px;line-height:1.25;font-family:sans-serif;letter-spacing:0px;word-spacing:0px;display:inline;fill:#000000;fill-opacity:1;stroke:none;stroke-width:0.26458332"
       id="text2112"
       transform="translate(0,5.2916669)">
      <path
         d="m 213.81914,176.23252 h 2.6603 v 0.5271 h -2.03398 v 1.36426 h 1.83555 v 0.5271 h -1.83555 v 2.21071 h -0.62632 z"
         style="font-size:6.3499999px;stroke-width:0.26458332"
         id="path956"
         inkscape:connector-curvature="0" />
    </g>
    <path
       style="display:inline;opacity:1;vector-effect:none;fill:#ffffff;fill-opacity:1;fill-rule:evenodd;stroke:#ff0009;stroke-width:1;stroke-linecap:butt;stroke-linejoin:miter;stroke-miterlimit:4;stroke-dasharray:none;stroke-dashoffset:0;stroke-opacity:1"
       d="m 257.25037,166.51112 h 4.14268 c 1.03647,0 1.87089,0.83442 1.87089,1.87089 v 4.14268 c 0,1.03647 -0.83442,1.87088 -1.87089,1.87088 h -4.14268 c -1.03647,0 -1.87088,-0.83441 -1.87088,-1.87088 v -4.14268 c 0,-1.03647 0.83441,-1.87089 1.87088,-1.87089 z"
       id="rect2114"
       inkscape:connector-curvature="0" />
    <g
       aria-label="G"
       style="font-style:normal;font-weight:normal;font-size:10.58333302px;line-height:1.25;font-family:sans-serif;letter-spacing:0px;word-spacing:0px;display:inline;fill:#000000;fill-opacity:1;stroke:none;stroke-width:0.26458332"
       id="text2118"
       transform="translate(0,5.2916669)">
      <path
         d="m 260.89634,166.83982 v -1.24334 h -1.02319 v -0.51469 h 1.64331 v 1.98747 q -0.36277,0.25735 -0.79995,0.39068 -0.43718,0.13022 -0.93328,0.13022 -1.0852,0 -1.69912,-0.63252 -0.61081,-0.63562 -0.61081,-1.76733 0,-1.13482 0.61081,-1.76734 0.61392,-0.63562 1.69912,-0.63562 0.45269,0 0.85887,0.11162 0.40927,0.11163 0.75344,0.32867 v 0.66662 q -0.34727,-0.29455 -0.73794,-0.44338 -0.39067,-0.14883 -0.82166,-0.14883 -0.84956,0 -1.27744,0.47439 -0.42478,0.47439 -0.42478,1.41387 0,0.93637 0.42478,1.41076 0.42788,0.47439 1.27744,0.47439 0.33177,0 0.59222,-0.0558 0.26044,-0.0589 0.46818,-0.17983 z"
         style="font-size:6.3499999px;stroke-width:0.26458332"
         id="path960"
         inkscape:connector-curvature="0" />
    </g>
    <g
       style="font-style:normal;font-weight:normal;font-size:10.58333302px;line-height:1.25;font-family:sans-serif;letter-spacing:0px;word-spacing:0px;display:inline;fill:#000000;fill-opacity:1;stroke:none;stroke-width:0.26458332"
       id="text2257" />
    <g
       style="font-style:normal;font-weight:normal;font-size:10.58333302px;line-height:1.25;font-family:sans-serif;letter-spacing:0px;word-spacing:0px;display:inline;fill:#000000;fill-opacity:1;stroke:none;stroke-width:0.26458332"
       id="text2229" />
    <text
       xml:space="preserve"
       style="font-style:normal;font-weight:normal;font-size:4.23333311px;line-height:1.25;font-family:sans-serif;letter-spacing:0px;word-spacing:0px;fill:#000000;fill-opacity:1;stroke:none;stroke-width:0.26458332"
       x="110.58921"
       y="107.36864"
       id="text1000"><tspan
         sodipodi:role="line"
         id="tspan998"
         x="110.58921"
         y="107.36864"
         style="font-size:5.64444447px;stroke-width:0.26458332">If disregard.parallels = TRUE</tspan></text>
  </g>
</svg>
