<?xml version="1.0" encoding="UTF-8" standalone="no"?>
<!-- Created with Inkscape (http://www.inkscape.org/) -->

<svg
   xmlns:dc="http://purl.org/dc/elements/1.1/"
   xmlns:cc="http://creativecommons.org/ns#"
   xmlns:rdf="http://www.w3.org/1999/02/22-rdf-syntax-ns#"
   xmlns:svg="http://www.w3.org/2000/svg"
   xmlns="http://www.w3.org/2000/svg"
   xmlns:sodipodi="http://sodipodi.sourceforge.net/DTD/sodipodi-0.dtd"
   xmlns:inkscape="http://www.inkscape.org/namespaces/inkscape"
   width="170.73106mm"
   height="94.323929mm"
   viewBox="0 0 170.73107 94.323929"
   version="1.1"
   id="svg1212"
   inkscape:version="0.92.4 (5da689c313, 2019-01-14)"
   sodipodi:docname="spatial_c.svg">
  <defs
     id="defs1206">
    <filter
       inkscape:collect="always"
       style="color-interpolation-filters:sRGB"
       id="filter921"
       x="-0.036349691"
       width="1.0726994"
       y="-0.03565697"
       height="1.0713139">
      <feGaussianBlur
         inkscape:collect="always"
         stdDeviation="2.7993861"
         id="feGaussianBlur923" />
    </filter>
  </defs>
  <sodipodi:namedview
     id="base"
     pagecolor="#ffffff"
     bordercolor="#666666"
     borderopacity="1.0"
     inkscape:pageopacity="0.0"
     inkscape:pageshadow="2"
     inkscape:zoom="0.98994949"
     inkscape:cx="382.53115"
     inkscape:cy="268.5492"
     inkscape:document-units="mm"
     inkscape:current-layer="layer1"
     showgrid="false"
     fit-margin-top="0"
     fit-margin-left="-0.1"
     fit-margin-right="0"
     fit-margin-bottom="0"
     inkscape:window-width="1920"
     inkscape:window-height="1001"
     inkscape:window-x="-9"
     inkscape:window-y="-9"
     inkscape:window-maximized="1" />
  <metadata
     id="metadata1209">
    <rdf:RDF>
      <cc:Work
         rdf:about="">
        <dc:format>image/svg+xml</dc:format>
        <dc:type
           rdf:resource="http://purl.org/dc/dcmitype/StillImage" />
        <dc:title></dc:title>
      </cc:Work>
    </rdf:RDF>
  </metadata>
  <g
     inkscape:label="Layer 1"
     inkscape:groupmode="layer"
     id="layer1"
     transform="translate(-34.306939,-13.096735)">
    <path
       transform="matrix(1.1825328,0,0,0.89276423,11.637017,-32.130155)"
       sodipodi:nodetypes="sssssss"
       inkscape:connector-curvature="0"
       id="path913"
       d="m 24.045917,94.710031 c -0.563239,14.898159 2.413584,24.606809 14.677958,34.402649 20.275661,16.19464 80.110345,38.98463 99.881845,9.17457 14.52471,-21.89934 19.77465,-23.76806 19.96288,-28.86457 C 159.89843,73.416444 145.28816,77.678793 128.27675,67.24037 89.125006,43.216344 59.984207,58.278515 47.024024,65.632536 27.392274,76.772218 24.785931,75.136027 24.045917,94.710031 Z"
       style="display:inline;opacity:1;vector-effect:none;fill:#e6f1ba;fill-opacity:1;stroke:none;stroke-width:1;stroke-linecap:butt;stroke-linejoin:miter;stroke-miterlimit:4;stroke-dasharray:none;stroke-dashoffset:0;stroke-opacity:1;filter:url(#filter921)" />
    <path
       id="path1849"
       style="opacity:1;vector-effect:none;fill:#a4efef;fill-opacity:1;fill-rule:evenodd;stroke:none;stroke-width:1.3011899;stroke-linecap:butt;stroke-linejoin:miter;stroke-miterlimit:4;stroke-dasharray:none;stroke-dashoffset:0;stroke-opacity:1"
       d="m 127.26159,40.461233 c -10.06402,-0.925628 -21.34886,0.502413 -29.671134,6.236607 -1.72673,1.189747 -3.67876,5.54009 -1.700892,6.236607 13.499826,4.754039 26.138406,0.260179 40.065476,0.188989 6.74519,-0.03448 19.75055,1.035037 14.3631,-3.02381 -8.26127,-6.223951 -12.67685,-8.683731 -23.05655,-9.638393 z m 69.49346,8.874743 c 0,0.238325 -27.63126,2.70607 -38.89853,-6.799945 C 151.87412,37.488772 134.75274,26.160179 117.6892,32.330673 104.0517,37.262244 80.279492,49.055571 66.696145,44.66216 58.222163,41.92132 42.842885,33.531853 42.842885,33.531853 l -4.099781,14.292814 c 0,0 16.763797,9.09657 26.089487,11.766315 14.677549,4.201872 11.09602,21.242061 25.054259,27.904809 19.82932,8.430565 34.45848,2.201436 89.69663,5.346175 l 7.48564,-11.581079 c -13.21049,-1.434251 -26.22977,-1.036099 -38.07457,-0.368059 -18.72978,1.056348 -34.52292,2.787521 -43.49183,-0.984356 -37.904463,-15.940741 -17.836635,-21.122313 13.63543,-18.101755 19.73348,1.893937 59.86368,-2.573069 77.4796,-0.190342 z"
       inkscape:connector-curvature="0"
       sodipodi:nodetypes="sssssscsssccscccssscc" />
    <path
       sodipodi:nodetypes="sssssscscccssscccssc"
       inkscape:connector-curvature="0"
       d="m 127.26159,40.461233 c -10.06402,-0.925628 -21.34886,0.502413 -29.671134,6.236607 -1.72673,1.189747 -3.67876,5.54009 -1.700892,6.236607 13.499826,4.754039 26.138406,0.260179 40.065476,0.188989 6.74519,-0.03448 19.75055,1.035037 14.3631,-3.02381 -8.26127,-6.223951 -12.67685,-8.683731 -23.05655,-9.638393 z m -88.518486,7.363434 c 0,0 16.763797,9.09657 26.089487,11.766315 14.677549,4.201872 11.09602,21.242061 25.054259,27.904809 19.82932,8.430565 34.45848,2.201436 89.69663,5.346175 m 7.48564,-11.581079 c -13.21049,-1.434251 -26.22977,-1.036099 -38.07457,-0.368059 -18.72978,1.056348 -34.52292,2.787521 -43.49183,-0.984356 -37.904463,-15.940741 -17.836635,-21.122313 13.63543,-18.101755 19.73348,1.893937 59.86368,-2.573069 77.4796,-0.190342 m 0.1373,-12.280399 C 183.45333,50.17553 165.85403,49.839591 157.85652,42.536031 152.31218,37.011152 134.75274,26.160179 117.6892,32.330673 104.0517,37.262244 80.279492,49.055571 66.696145,44.66216 58.222163,41.92132 42.842885,33.531853 42.842885,33.531853"
       style="opacity:1;vector-effect:none;fill:none;fill-opacity:1;fill-rule:evenodd;stroke:#000000;stroke-width:1.301;stroke-linecap:butt;stroke-linejoin:miter;stroke-miterlimit:4;stroke-dasharray:none;stroke-dashoffset:0;stroke-opacity:1"
       id="path1897" />
    <path
       sodipodi:nodetypes="cc"
       style="opacity:1;vector-effect:none;fill:none;fill-opacity:1;stroke:#ff0000;stroke-width:1.20000005;stroke-linecap:round;stroke-linejoin:miter;stroke-miterlimit:4;stroke-dasharray:none;stroke-dashoffset:0;stroke-opacity:1"
       d="m 51.686112,36.717952 -7.021971,16.14145"
       id="path939"
       inkscape:connector-curvature="0" />
    <path
       inkscape:connector-curvature="0"
       id="path1120"
       d="m 105.39653,36.302176 1.97386,6.351865"
       style="opacity:1;vector-effect:none;fill:none;fill-opacity:1;stroke:#ff0000;stroke-width:1.20000005;stroke-linecap:round;stroke-linejoin:miter;stroke-miterlimit:4;stroke-dasharray:none;stroke-dashoffset:0;stroke-opacity:1"
       sodipodi:nodetypes="cc" />
    <path
       inkscape:connector-curvature="0"
       id="path1125"
       d="m 145.29334,33.777403 -5.63122,11.049705"
       style="opacity:1;vector-effect:none;fill:none;fill-opacity:1;stroke:#ff0000;stroke-width:1.20000005;stroke-linecap:round;stroke-linejoin:miter;stroke-miterlimit:4;stroke-dasharray:none;stroke-dashoffset:0;stroke-opacity:1"
       sodipodi:nodetypes="cc" />
    <path
       sodipodi:nodetypes="cc"
       style="opacity:1;vector-effect:none;fill:none;fill-opacity:1;stroke:#ff0000;stroke-width:1.20000005;stroke-linecap:round;stroke-linejoin:miter;stroke-miterlimit:4;stroke-dasharray:none;stroke-dashoffset:0;stroke-opacity:1"
       d="m 170.20317,79.811901 0.0543,13.661028"
       id="path1127"
       inkscape:connector-curvature="0" />
    <path
       inkscape:connector-curvature="0"
       style="font-style:normal;font-variant:normal;font-weight:normal;font-stretch:normal;font-size:3.88055563px;line-height:3.5ex;font-family:Lato;-inkscape-font-specification:Lato;font-variant-ligatures:normal;font-variant-position:normal;font-variant-caps:normal;font-variant-numeric:normal;font-variant-alternates:normal;font-feature-settings:normal;text-indent:0;text-align:start;text-decoration:none;text-decoration-line:none;text-decoration-style:solid;text-decoration-color:#000000;letter-spacing:0px;word-spacing:0px;text-transform:none;writing-mode:lr-tb;direction:ltr;text-orientation:mixed;dominant-baseline:auto;baseline-shift:baseline;text-anchor:start;white-space:normal;shape-padding:0;opacity:1;vector-effect:none;fill:#ffffff;fill-opacity:1;fill-rule:evenodd;stroke:#000000;stroke-width:0.52101153;stroke-linecap:round;stroke-linejoin:miter;stroke-miterlimit:4;stroke-dasharray:none;stroke-dashoffset:0;stroke-opacity:1"
       d="m 53.415501,25.780366 h 3.445934 c 1.04702,0 1.88994,0.842913 1.88994,1.889938 v 3.958047 c 0,1.047025 -0.84292,1.889938 -1.88994,1.889938 h -3.445934 c -1.04702,0 -1.889931,-0.842913 -1.889931,-1.889938 v -3.958047 c 0,-1.047025 0.842911,-1.889938 1.889931,-1.889938 z"
       id="rect1156" />
    <g
       transform="translate(-282.11447,-24.319184)"
       aria-label="A"
       style="font-style:normal;font-variant:normal;font-weight:normal;font-stretch:normal;font-size:3.88055563px;line-height:3.5ex;font-family:Lato;-inkscape-font-specification:Lato;font-variant-ligatures:normal;font-variant-position:normal;font-variant-caps:normal;font-variant-numeric:normal;font-variant-alternates:normal;font-feature-settings:normal;text-indent:0;text-align:start;text-decoration:none;text-decoration-line:none;text-decoration-style:solid;text-decoration-color:#000000;letter-spacing:0px;word-spacing:0px;text-transform:none;writing-mode:lr-tb;direction:ltr;text-orientation:mixed;dominant-baseline:auto;baseline-shift:baseline;text-anchor:start;white-space:normal;shape-padding:0;opacity:1;vector-effect:none;fill:#000000;fill-opacity:1;stroke:none;stroke-width:0.35600001;stroke-linecap:butt;stroke-linejoin:miter;stroke-miterlimit:4;stroke-dasharray:none;stroke-dashoffset:0;stroke-opacity:1"
       id="text937-3">
      <path
         inkscape:connector-curvature="0"
         d="m 337.29938,51.934056 -0.94395,2.559706 h 1.89136 z m -0.39274,-0.685574 h 0.78893 l 1.96026,5.143528 h -0.72347 l -0.46853,-1.319472 h -2.31855 l -0.46854,1.319472 h -0.7338 z"
         style="font-style:normal;font-variant:normal;font-weight:normal;font-stretch:normal;font-size:7.05555534px;line-height:3.5ex;font-family:Lato;-inkscape-font-specification:Lato;font-variant-ligatures:normal;font-variant-position:normal;font-variant-caps:normal;font-variant-numeric:normal;font-variant-alternates:normal;font-feature-settings:normal;text-indent:0;text-align:start;text-decoration:none;text-decoration-line:none;text-decoration-style:solid;text-decoration-color:#000000;letter-spacing:0px;word-spacing:0px;text-transform:none;writing-mode:lr-tb;direction:ltr;text-orientation:mixed;dominant-baseline:auto;text-anchor:start;white-space:normal;shape-padding:0;vector-effect:none;fill:#000000;fill-opacity:1;stroke:none;stroke-width:0.35600001;stroke-linecap:butt;stroke-linejoin:miter;stroke-miterlimit:4;stroke-dasharray:none;stroke-dashoffset:0;stroke-opacity:1"
         id="path2737" />
    </g>
    <path
       inkscape:connector-curvature="0"
       style="font-style:normal;font-variant:normal;font-weight:normal;font-stretch:normal;font-size:3.88055563px;line-height:3.5ex;font-family:Lato;-inkscape-font-specification:Lato;font-variant-ligatures:normal;font-variant-position:normal;font-variant-caps:normal;font-variant-numeric:normal;font-variant-alternates:normal;font-feature-settings:normal;text-indent:0;text-align:start;text-decoration:none;text-decoration-line:none;text-decoration-style:solid;text-decoration-color:#000000;letter-spacing:0px;word-spacing:0px;text-transform:none;writing-mode:lr-tb;direction:ltr;text-orientation:mixed;dominant-baseline:auto;baseline-shift:baseline;text-anchor:start;white-space:normal;shape-padding:0;opacity:1;vector-effect:none;fill:#ffffff;fill-opacity:1;fill-rule:evenodd;stroke:#000000;stroke-width:0.52101153;stroke-linecap:round;stroke-linejoin:miter;stroke-miterlimit:4;stroke-dasharray:none;stroke-dashoffset:0;stroke-opacity:1"
       d="m 100.57669,25.26051 h 3.44593 c 1.04703,0 1.88994,0.842912 1.88994,1.889937 v 3.958047 c 0,1.047026 -0.84291,1.889938 -1.88994,1.889938 h -3.44593 c -1.047026,0 -1.889936,-0.842912 -1.889936,-1.889938 v -3.958047 c 0,-1.047025 0.84291,-1.889937 1.889936,-1.889937 z"
       id="rect1219" />
    <g
       transform="translate(-251.00445,-31.304552)"
       aria-label="B"
       style="font-style:normal;font-variant:normal;font-weight:normal;font-stretch:normal;font-size:3.88055563px;line-height:3.5ex;font-family:Lato;-inkscape-font-specification:Lato;font-variant-ligatures:normal;font-variant-position:normal;font-variant-caps:normal;font-variant-numeric:normal;font-variant-alternates:normal;font-feature-settings:normal;text-indent:0;text-align:start;text-decoration:none;text-decoration-line:none;text-decoration-style:solid;text-decoration-color:#000000;letter-spacing:0px;word-spacing:0px;text-transform:none;writing-mode:lr-tb;direction:ltr;text-orientation:mixed;dominant-baseline:auto;baseline-shift:baseline;text-anchor:start;white-space:normal;shape-padding:0;opacity:1;vector-effect:none;fill:#000000;fill-opacity:1;stroke:none;stroke-width:0.35600001;stroke-linecap:butt;stroke-linejoin:miter;stroke-miterlimit:4;stroke-dasharray:none;stroke-dashoffset:0;stroke-opacity:1"
       id="text1223">
      <path
         inkscape:connector-curvature="0"
         d="m 352.25864,60.516662 v 1.884467 h 1.11621 q 0.56155,0 0.83027,-0.230821 0.27216,-0.234267 0.27216,-0.713135 0,-0.482313 -0.27216,-0.70969 -0.26872,-0.230821 -0.83027,-0.230821 z m 0,-2.115289 v 1.550293 h 1.03009 q 0.50987,0 0.75792,-0.18948 0.25149,-0.192925 0.25149,-0.585666 0,-0.389296 -0.25149,-0.582221 -0.24805,-0.192926 -0.75792,-0.192926 z m -0.69591,-0.571886 h 1.77767 q 0.79582,0 1.22646,0.33073 0.43063,0.330729 0.43063,0.940511 0,0.471978 -0.22048,0.75103 -0.22049,0.279053 -0.64768,0.347955 0.51332,0.110243 0.79582,0.461643 0.28594,0.347954 0.28594,0.871609 0,0.689019 -0.46853,1.064534 -0.46854,0.375516 -1.33325,0.375516 h -1.84658 z"
         style="font-style:normal;font-variant:normal;font-weight:normal;font-stretch:normal;font-size:7.05555534px;line-height:3.5ex;font-family:Lato;-inkscape-font-specification:Lato;font-variant-ligatures:normal;font-variant-position:normal;font-variant-caps:normal;font-variant-numeric:normal;font-variant-alternates:normal;font-feature-settings:normal;text-indent:0;text-align:start;text-decoration:none;text-decoration-line:none;text-decoration-style:solid;text-decoration-color:#000000;letter-spacing:0px;word-spacing:0px;text-transform:none;writing-mode:lr-tb;direction:ltr;text-orientation:mixed;dominant-baseline:auto;text-anchor:start;white-space:normal;shape-padding:0;vector-effect:none;fill:#000000;fill-opacity:1;stroke:none;stroke-width:0.35600001;stroke-linecap:butt;stroke-linejoin:miter;stroke-miterlimit:4;stroke-dasharray:none;stroke-dashoffset:0;stroke-opacity:1"
         id="path2841" />
    </g>
    <path
       inkscape:connector-curvature="0"
       style="font-style:normal;font-variant:normal;font-weight:normal;font-stretch:normal;font-size:3.88055563px;line-height:3.5ex;font-family:Lato;-inkscape-font-specification:Lato;font-variant-ligatures:normal;font-variant-position:normal;font-variant-caps:normal;font-variant-numeric:normal;font-variant-alternates:normal;font-feature-settings:normal;text-indent:0;text-align:start;text-decoration:none;text-decoration-line:none;text-decoration-style:solid;text-decoration-color:#000000;letter-spacing:0px;word-spacing:0px;text-transform:none;writing-mode:lr-tb;direction:ltr;text-orientation:mixed;dominant-baseline:auto;baseline-shift:baseline;text-anchor:start;white-space:normal;shape-padding:0;opacity:1;vector-effect:none;fill:#ffffff;fill-opacity:1;fill-rule:evenodd;stroke:#000000;stroke-width:0.52101153;stroke-linecap:round;stroke-linejoin:miter;stroke-miterlimit:4;stroke-dasharray:none;stroke-dashoffset:0;stroke-opacity:1"
       d="m 148.28402,24.060699 h 3.44594 c 1.04703,0 1.88994,0.842912 1.88994,1.889938 v 3.958047 c 0,1.047025 -0.84291,1.889937 -1.88994,1.889937 h -3.44594 c -1.04701,0 -1.88993,-0.842912 -1.88993,-1.889937 v -3.958047 c 0,-1.047026 0.84292,-1.889938 1.88993,-1.889938 z"
       id="rect1225" />
    <g
       transform="translate(-224.13734,-36.42499)"
       aria-label="C"
       style="font-style:normal;font-variant:normal;font-weight:normal;font-stretch:normal;font-size:3.88055563px;line-height:3.5ex;font-family:Lato;-inkscape-font-specification:Lato;font-variant-ligatures:normal;font-variant-position:normal;font-variant-caps:normal;font-variant-numeric:normal;font-variant-alternates:normal;font-feature-settings:normal;text-indent:0;text-align:start;text-decoration:none;text-decoration-line:none;text-decoration-style:solid;text-decoration-color:#000000;letter-spacing:0px;word-spacing:0px;text-transform:none;writing-mode:lr-tb;direction:ltr;text-orientation:mixed;dominant-baseline:auto;baseline-shift:baseline;text-anchor:start;white-space:normal;shape-padding:0;opacity:1;vector-effect:none;fill:#000000;fill-opacity:1;stroke:none;stroke-width:0.35600001;stroke-linecap:butt;stroke-linejoin:miter;stroke-miterlimit:4;stroke-dasharray:none;stroke-dashoffset:0;stroke-opacity:1"
       id="text1229">
      <path
         inkscape:connector-curvature="0"
         d="m 376.00349,62.268291 v 0.733806 q -0.3514,-0.327285 -0.75103,-0.489204 -0.39618,-0.16192 -0.84405,-0.16192 -0.88194,0 -1.35047,0.54088 -0.46854,0.537435 -0.46854,1.557184 0,1.016303 0.46854,1.557183 0.46853,0.537435 1.35047,0.537435 0.44787,0 0.84405,-0.16192 0.39963,-0.161919 0.75103,-0.489203 v 0.726915 q -0.36518,0.248047 -0.77514,0.37207 -0.40653,0.124023 -0.86128,0.124023 -1.16789,0 -1.83968,-0.713134 -0.67179,-0.71658 -0.67179,-1.953369 0,-1.240235 0.67179,-1.95337 0.67179,-0.716579 1.83968,-0.716579 0.46164,0 0.86817,0.124023 0.40996,0.120578 0.76825,0.36518 z"
         style="font-style:normal;font-variant:normal;font-weight:normal;font-stretch:normal;font-size:7.05555534px;line-height:3.5ex;font-family:Lato;-inkscape-font-specification:Lato;font-variant-ligatures:normal;font-variant-position:normal;font-variant-caps:normal;font-variant-numeric:normal;font-variant-alternates:normal;font-feature-settings:normal;text-indent:0;text-align:start;text-decoration:none;text-decoration-line:none;text-decoration-style:solid;text-decoration-color:#000000;letter-spacing:0px;word-spacing:0px;text-transform:none;writing-mode:lr-tb;direction:ltr;text-orientation:mixed;dominant-baseline:auto;text-anchor:start;white-space:normal;shape-padding:0;vector-effect:none;fill:#000000;fill-opacity:1;stroke:none;stroke-width:0.35600001;stroke-linecap:butt;stroke-linejoin:miter;stroke-miterlimit:4;stroke-dasharray:none;stroke-dashoffset:0;stroke-opacity:1"
         id="path2845" />
    </g>
    <path
       inkscape:connector-curvature="0"
       style="font-style:normal;font-variant:normal;font-weight:normal;font-stretch:normal;font-size:3.88055563px;line-height:3.5ex;font-family:Lato;-inkscape-font-specification:Lato;font-variant-ligatures:normal;font-variant-position:normal;font-variant-caps:normal;font-variant-numeric:normal;font-variant-alternates:normal;font-feature-settings:normal;text-indent:0;text-align:start;text-decoration:none;text-decoration-line:none;text-decoration-style:solid;text-decoration-color:#000000;letter-spacing:0px;word-spacing:0px;text-transform:none;writing-mode:lr-tb;direction:ltr;text-orientation:mixed;dominant-baseline:auto;baseline-shift:baseline;text-anchor:start;white-space:normal;shape-padding:0;opacity:1;vector-effect:none;fill:#ffffff;fill-opacity:1;fill-rule:evenodd;stroke:#000000;stroke-width:0.52101153;stroke-linecap:round;stroke-linejoin:miter;stroke-miterlimit:4;stroke-dasharray:none;stroke-dashoffset:0;stroke-opacity:1"
       d="m 179.68415,35.61036 h 3.44594 c 1.04701,0 1.88992,0.842912 1.88992,1.889938 v 3.958046 c 0,1.047026 -0.84291,1.889938 -1.88992,1.889938 h -3.44594 c -1.04702,0 -1.88994,-0.842912 -1.88994,-1.889938 v -3.958046 c 0,-1.047026 0.84292,-1.889938 1.88994,-1.889938 z"
       id="rect1231" />
    <g
       transform="translate(-213.88184,-26.239923)"
       aria-label="D"
       style="font-style:normal;font-variant:normal;font-weight:normal;font-stretch:normal;font-size:3.88055563px;line-height:3.5ex;font-family:Lato;-inkscape-font-specification:Lato;font-variant-ligatures:normal;font-variant-position:normal;font-variant-caps:normal;font-variant-numeric:normal;font-variant-alternates:normal;font-feature-settings:normal;text-indent:0;text-align:start;text-decoration:none;text-decoration-line:none;text-decoration-style:solid;text-decoration-color:#000000;letter-spacing:0px;word-spacing:0px;text-transform:none;writing-mode:lr-tb;direction:ltr;text-orientation:mixed;dominant-baseline:auto;baseline-shift:baseline;text-anchor:start;white-space:normal;shape-padding:0;opacity:1;vector-effect:none;fill:#000000;fill-opacity:1;stroke:none;stroke-width:0.35600001;stroke-linecap:butt;stroke-linejoin:miter;stroke-miterlimit:4;stroke-dasharray:none;stroke-dashoffset:0;stroke-opacity:1"
       id="text1235">
      <path
         inkscape:connector-curvature="0"
         d="m 394.00101,63.66619 v 3.999755 h 0.84061 q 1.06453,0 1.55718,-0.482313 0.49609,-0.482313 0.49609,-1.522732 0,-1.033529 -0.49609,-1.512397 -0.49265,-0.482313 -1.55718,-0.482313 z m -0.69591,-0.571886 h 1.42972 q 1.49517,0 2.19452,0.623562 0.69936,0.620117 0.69936,1.943034 0,1.329807 -0.7028,1.953369 -0.7028,0.623562 -2.19108,0.623562 h -1.42972 z"
         style="font-style:normal;font-variant:normal;font-weight:normal;font-stretch:normal;font-size:7.05555534px;line-height:3.5ex;font-family:Lato;-inkscape-font-specification:Lato;font-variant-ligatures:normal;font-variant-position:normal;font-variant-caps:normal;font-variant-numeric:normal;font-variant-alternates:normal;font-feature-settings:normal;text-indent:0;text-align:start;text-decoration:none;text-decoration-line:none;text-decoration-style:solid;text-decoration-color:#000000;letter-spacing:0px;word-spacing:0px;text-transform:none;writing-mode:lr-tb;direction:ltr;text-orientation:mixed;dominant-baseline:auto;text-anchor:start;white-space:normal;shape-padding:0;vector-effect:none;fill:#000000;fill-opacity:1;stroke:none;stroke-width:0.35600001;stroke-linecap:butt;stroke-linejoin:miter;stroke-miterlimit:4;stroke-dasharray:none;stroke-dashoffset:0;stroke-opacity:1"
         id="path2849" />
    </g>
    <path
       inkscape:connector-curvature="0"
       style="font-style:normal;font-variant:normal;font-weight:normal;font-stretch:normal;font-size:3.88055563px;line-height:3.5ex;font-family:Lato;-inkscape-font-specification:Lato;font-variant-ligatures:normal;font-variant-position:normal;font-variant-caps:normal;font-variant-numeric:normal;font-variant-alternates:normal;font-feature-settings:normal;text-indent:0;text-align:start;text-decoration:none;text-decoration-line:none;text-decoration-style:solid;text-decoration-color:#000000;letter-spacing:0px;word-spacing:0px;text-transform:none;writing-mode:lr-tb;direction:ltr;text-orientation:mixed;dominant-baseline:auto;baseline-shift:baseline;text-anchor:start;white-space:normal;shape-padding:0;opacity:1;vector-effect:none;fill:#ffffff;fill-opacity:1;fill-rule:evenodd;stroke:#000000;stroke-width:0.52101153;stroke-linecap:round;stroke-linejoin:miter;stroke-miterlimit:4;stroke-dasharray:none;stroke-dashoffset:0;stroke-opacity:1"
       d="m 121.7824,65.972695 h 3.44593 c 1.04703,0 1.88994,0.842912 1.88994,1.889938 v 3.958047 c 0,1.047025 -0.84291,1.889937 -1.88994,1.889937 h -3.44593 c -1.04703,0 -1.88995,-0.842912 -1.88995,-1.889937 v -3.958047 c 0,-1.047026 0.84292,-1.889938 1.88995,-1.889938 z"
       id="rect1237" />
    <g
       transform="translate(-291.67248,5.686198)"
       aria-label="E"
       style="font-style:normal;font-variant:normal;font-weight:normal;font-stretch:normal;font-size:3.88055563px;line-height:3.5ex;font-family:Lato;-inkscape-font-specification:Lato;font-variant-ligatures:normal;font-variant-position:normal;font-variant-caps:normal;font-variant-numeric:normal;font-variant-alternates:normal;font-feature-settings:normal;text-indent:0;text-align:start;text-decoration:none;text-decoration-line:none;text-decoration-style:solid;text-decoration-color:#000000;letter-spacing:0px;word-spacing:0px;text-transform:none;writing-mode:lr-tb;direction:ltr;text-orientation:mixed;dominant-baseline:auto;baseline-shift:baseline;text-anchor:start;white-space:normal;shape-padding:0;opacity:1;vector-effect:none;fill:#000000;fill-opacity:1;stroke:none;stroke-width:0.35600001;stroke-linecap:butt;stroke-linejoin:miter;stroke-miterlimit:4;stroke-dasharray:none;stroke-dashoffset:0;stroke-opacity:1"
       id="text1241">
      <path
         inkscape:connector-curvature="0"
         d="m 413.6122,61.590062 h 3.25217 v 0.585666 h -2.55626 v 1.522732 h 2.44947 v 0.585666 h -2.44947 v 1.863797 h 2.61827 v 0.585666 h -3.31418 z"
         style="font-style:normal;font-variant:normal;font-weight:normal;font-stretch:normal;font-size:7.05555534px;line-height:3.5ex;font-family:Lato;-inkscape-font-specification:Lato;font-variant-ligatures:normal;font-variant-position:normal;font-variant-caps:normal;font-variant-numeric:normal;font-variant-alternates:normal;font-feature-settings:normal;text-indent:0;text-align:start;text-decoration:none;text-decoration-line:none;text-decoration-style:solid;text-decoration-color:#000000;letter-spacing:0px;word-spacing:0px;text-transform:none;writing-mode:lr-tb;direction:ltr;text-orientation:mixed;dominant-baseline:auto;text-anchor:start;white-space:normal;shape-padding:0;vector-effect:none;fill:#000000;fill-opacity:1;stroke:none;stroke-width:0.35600001;stroke-linecap:butt;stroke-linejoin:miter;stroke-miterlimit:4;stroke-dasharray:none;stroke-dashoffset:0;stroke-opacity:1"
         id="path2853" />
    </g>
    <path
       sodipodi:nodetypes="cc"
       style="opacity:1;vector-effect:none;fill:none;fill-opacity:1;stroke:#ff0000;stroke-width:1.20000005;stroke-linecap:round;stroke-linejoin:miter;stroke-miterlimit:4;stroke-dasharray:none;stroke-dashoffset:0;stroke-opacity:1"
       d="m 123.97176,53.407426 -0.0307,9.692734"
       id="path1867"
       inkscape:connector-curvature="0" />
    <path
       inkscape:connector-curvature="0"
       id="path1869"
       d="m 180.04399,47.63048 -1.00135,14.148082"
       style="opacity:1;vector-effect:none;fill:none;fill-opacity:1;stroke:#ff0000;stroke-width:1.20000005;stroke-linecap:round;stroke-linejoin:miter;stroke-miterlimit:4;stroke-dasharray:none;stroke-dashoffset:0;stroke-opacity:1"
       sodipodi:nodetypes="cc" />
    <path
       sodipodi:nodetypes="cc"
       style="opacity:1;vector-effect:none;fill:none;fill-opacity:1;stroke:#ff0000;stroke-width:1.14976156;stroke-linecap:round;stroke-linejoin:miter;stroke-miterlimit:4;stroke-dasharray:none;stroke-dashoffset:0;stroke-opacity:1"
       d="M 89.729072,70.030384 81.950867,82.407422"
       id="path1871"
       inkscape:connector-curvature="0" />
    <path
       id="path1873"
       d="m 75.143867,84.414292 h 3.44593 c 1.04703,0 1.88994,0.842912 1.88994,1.889938 v 3.958047 c 0,1.047025 -0.84291,1.889937 -1.88994,1.889937 h -3.44593 c -1.04703,0 -1.88995,-0.842912 -1.88995,-1.889937 V 86.30423 c 0,-1.047026 0.84292,-1.889938 1.88995,-1.889938 z"
       style="font-style:normal;font-variant:normal;font-weight:normal;font-stretch:normal;font-size:3.88055563px;line-height:3.5ex;font-family:Lato;-inkscape-font-specification:Lato;font-variant-ligatures:normal;font-variant-position:normal;font-variant-caps:normal;font-variant-numeric:normal;font-variant-alternates:normal;font-feature-settings:normal;text-indent:0;text-align:start;text-decoration:none;text-decoration-line:none;text-decoration-style:solid;text-decoration-color:#000000;letter-spacing:0px;word-spacing:0px;text-transform:none;writing-mode:lr-tb;direction:ltr;text-orientation:mixed;dominant-baseline:auto;baseline-shift:baseline;text-anchor:start;white-space:normal;shape-padding:0;opacity:1;vector-effect:none;fill:#ffffff;fill-opacity:1;fill-rule:evenodd;stroke:#000000;stroke-width:0.52101153;stroke-linecap:round;stroke-linejoin:miter;stroke-miterlimit:4;stroke-dasharray:none;stroke-dashoffset:0;stroke-opacity:1"
       inkscape:connector-curvature="0" />
    <path
       inkscape:connector-curvature="0"
       style="font-style:normal;font-variant:normal;font-weight:normal;font-stretch:normal;font-size:3.88055563px;line-height:3.5ex;font-family:Lato;-inkscape-font-specification:Lato;font-variant-ligatures:normal;font-variant-position:normal;font-variant-caps:normal;font-variant-numeric:normal;font-variant-alternates:normal;font-feature-settings:normal;text-indent:0;text-align:start;text-decoration:none;text-decoration-line:none;text-decoration-style:solid;text-decoration-color:#000000;letter-spacing:0px;word-spacing:0px;text-transform:none;writing-mode:lr-tb;direction:ltr;text-orientation:mixed;dominant-baseline:auto;baseline-shift:baseline;text-anchor:start;white-space:normal;shape-padding:0;opacity:1;vector-effect:none;fill:#ffffff;fill-opacity:1;fill-rule:evenodd;stroke:#000000;stroke-width:0.52101153;stroke-linecap:round;stroke-linejoin:miter;stroke-miterlimit:4;stroke-dasharray:none;stroke-dashoffset:0;stroke-opacity:1"
       d="m 168.6882,96.441421 h 3.44593 c 1.04703,0 1.88994,0.842912 1.88994,1.889938 v 3.958051 c 0,1.04702 -0.84291,1.88993 -1.88994,1.88993 h -3.44593 c -1.04703,0 -1.88995,-0.84291 -1.88995,-1.88993 v -3.958051 c 0,-1.047026 0.84292,-1.889938 1.88995,-1.889938 z"
       id="path1879" />
    <text
       xml:space="preserve"
       style="font-style:normal;font-weight:normal;font-size:10.58333302px;line-height:1.25;font-family:sans-serif;letter-spacing:0px;word-spacing:0px;fill:#000000;fill-opacity:1;stroke:none;stroke-width:0.26458332"
       x="78.446571"
       y="87.826256"
       id="text1887"><tspan
         sodipodi:role="line"
         id="tspan1885"
         x="78.446571"
         y="97.190025"
         style="stroke-width:0.26458332"></tspan></text>
    <g
       aria-label="F"
       style="font-style:normal;font-weight:normal;font-size:7.05555534px;line-height:1.25;font-family:sans-serif;letter-spacing:0px;word-spacing:0px;fill:#000000;fill-opacity:1;stroke:none;stroke-width:0.26458332"
       id="text1891">
      <path
         d="m 75.401182,85.917637 h 2.955891 v 0.585667 h -2.259982 v 1.515842 h 2.039496 v 0.585666 h -2.039496 v 2.456353 h -0.695909 z"
         style="font-size:7.05555534px;stroke-width:0.26458332"
         id="path1902"
         inkscape:connector-curvature="0" />
    </g>
    <g
       aria-label="G"
       style="font-style:normal;font-weight:normal;font-size:7.05555534px;line-height:1.25;font-family:sans-serif;letter-spacing:0px;word-spacing:0px;fill:#000000;fill-opacity:1;stroke:none;stroke-width:0.26458332"
       id="text1895">
      <path
         d="m 171.89044,102.13911 v -1.38148 h -1.13688 v -0.57189 h 1.8259 v 2.20831 q -0.40307,0.28594 -0.88883,0.43408 -0.48576,0.14469 -1.03698,0.14469 -1.20578,0 -1.88791,-0.70279 -0.67868,-0.70625 -0.67868,-1.96371 0,-1.260904 0.67868,-1.963703 0.68213,-0.706245 1.88791,-0.706245 0.50299,0 0.9543,0.124024 0.45475,0.124023 0.83715,0.36518 v 0.740695 q -0.38585,-0.327284 -0.81993,-0.492648 -0.43408,-0.165365 -0.91295,-0.165365 -0.94396,0 -1.41938,0.5271 -0.47198,0.527099 -0.47198,1.570962 0,1.04042 0.47198,1.56752 0.47542,0.5271 1.41938,0.5271 0.36863,0 0.65801,-0.062 0.28939,-0.0655 0.52021,-0.19982 z"
         style="font-size:7.05555534px;stroke-width:0.26458332"
         id="path1899"
         inkscape:connector-curvature="0" />
    </g>
  </g>
</svg>
